<svg xmlns="http://www.w3.org/2000/svg" width="773.98" height="419.061" viewBox="0 0 773.98 419.061">
  <g id="Group_109" data-name="Group 109" transform="translate(0 0)">
    <path id="Path_156" data-name="Path 156" d="M633.01,462.151v.91a31.514,31.514,0,0,1-31.515,31.51H245.72a31.512,31.512,0,0,1-31.51-31.507v-.913Z" transform="translate(-213.01 -240.458)" fill="#f2f2f2"/>
    <path id="Path_157" data-name="Path 157" d="M288.62,312.151c-25.71,6.35-48.79-13.43-52.82-31.78l1.79-.32C259.26,275.261,283.45,290.751,288.62,312.151Z" transform="translate(-213.01 -240.458)" fill="#6c63ff"/>
    <path id="Path_158" data-name="Path 158" d="M910.08,651.982c-7.436-3.211-9.125-14.908-2.9-20.091s17.422-1.405,19.235,6.488l-6.936-49.618c-1.595-11.407-2.871-24.159,4.023-33.387,6.456-8.641,19.067-11.409,29.192-7.69s17.607,13,20.782,23.307,2.426,21.511-.347,31.934-7.482,20.215-12.245,29.892c-4.881,9.917-10.8,20.663-21.232,24.313C929.684,660.618,910.08,651.982,910.08,651.982Z" transform="translate(-213.01 -240.458)" fill="#f2f2f2"/>
    <path id="Path_159" data-name="Path 159" d="M942.665,546.744a135.265,135.265,0,0,1,6.422,44.044,139,139,0,0,1-7.911,43.618,132.589,132.589,0,0,1-10.669,22.9,1.5,1.5,0,0,0,2.591,1.514,137.91,137.91,0,0,0,16.148-42.325,141.5,141.5,0,0,0,1.813-45.508,136.687,136.687,0,0,0-5.5-25.04c-.589-1.83-3.487-1.048-2.893.8Z" transform="translate(-213.01 -240.458)" fill="#fff"/>
    <path id="Path_160" data-name="Path 160" d="M905.671,633.717l23.744,24.952c1.334,1.4,3.453-.722,2.121-2.121L907.793,631.6c-1.334-1.4-3.453.722-2.121,2.121Z" transform="translate(-213.01 -240.458)" fill="#fff"/>
    <path id="Path_161" data-name="Path 161" d="M885.5,539.506a3.508,3.508,0,0,1-2.3-.856,165.033,165.033,0,0,1-38.661-35.008,3.536,3.536,0,0,1-.187-4.938l7.2-7.948,1.482,1.343-7.2,7.948a1.536,1.536,0,0,0,.107,2.169l.105.111a163.027,163.027,0,0,0,38.3,34.682l.131.1a1.536,1.536,0,0,0,2.169-.107l14.043-15.508a1.535,1.535,0,0,0-.032-2.1c-3.254-1.773-6.429-3.706-9.439-5.747L892.337,512c2.993,2.029,6.152,3.949,9.39,5.708l.194.138a3.536,3.536,0,0,1,.248,4.994l-14.042,15.508a3.512,3.512,0,0,1-2.446,1.158Q885.59,539.506,885.5,539.506Z" transform="translate(-213.01 -240.458)" fill="#3f3d56"/>
    <path id="Path_162" data-name="Path 162" d="M870.021,513.4c4.41,3.99,8.94,6.18,10.12,4.88a1.63,1.63,0,0,0,.18-1.53,11.737,11.737,0,0,0-2.25-4.01q-5.88-4.185-11.43-9.03c-1.16-.38-2.05-.37-2.48.11a.909.909,0,0,0-.15.23C863.271,505.559,865.84,509.609,870.021,513.4Z" transform="translate(-213.01 -240.458)" fill="#6c63ff"/>
    <path id="Path_163" data-name="Path 163" d="M843.44,481.249a3.458,3.458,0,0,0,1.1,2.39,173.3,173.3,0,0,0,19.47,20.41,154.844,154.844,0,0,0,16.31,12.7c.95.65,1.91,1.28,2.88,1.9a3.471,3.471,0,0,0,2.3.86c.06,0,.12-.01.18-.01a3.513,3.513,0,0,0,2.45-1.16l14.04-15.5a3.541,3.541,0,0,0-.25-5l-.19-.14a108.159,108.159,0,0,1-38.19-34.57l-.15-.18a3.541,3.541,0,0,0-5,.25l-14.04,15.5a3.525,3.525,0,0,0-.91,2.55Zm2-.1a1.522,1.522,0,0,1,.39-1.1l14.04-15.51a1.521,1.521,0,0,1,1.07-.5,1.5,1.5,0,0,1,1.02.32,110.2,110.2,0,0,0,38.69,35.04,1.532,1.532,0,0,1,.04,2.09L886.64,517a1.482,1.482,0,0,1-1.06.5,1.561,1.561,0,0,1-1.11-.39l-.13-.1q-3.179-2.04-6.27-4.27-5.88-4.185-11.43-9.03a171.417,171.417,0,0,1-20.6-21.38l-.1-.11a1.565,1.565,0,0,1-.5-1.07Z" transform="translate(-213.01 -240.458)" fill="#3f3d56"/>
    <ellipse id="Ellipse_25" data-name="Ellipse 25" cx="3.17" cy="10.777" rx="3.17" ry="10.777" transform="translate(649.019 245.709) rotate(-47.838)" fill="#6c63ff"/>
    <path id="Path_164" data-name="Path 164" d="M578.9,406.55H566.645l-5.833-47.288h18.094Z" fill="#ffb8b8"/>
    <path id="Path_165" data-name="Path 165" d="M795.041,658.892H755.51v-.5A15.386,15.386,0,0,1,770.9,643h24.144Z" transform="translate(-213.01 -240.458)" fill="#2f2e41"/>
    <path id="Path_166" data-name="Path 166" d="M614.9,406.55H602.645l-5.833-47.288h18.094Z" fill="#ffb8b8"/>
    <path id="Path_167" data-name="Path 167" d="M831.041,658.892H791.51v-.5A15.386,15.386,0,0,1,806.9,643h24.144Z" transform="translate(-213.01 -240.458)" fill="#2f2e41"/>
    <path id="Path_168" data-name="Path 168" d="M836.142,455.9l-2.927,173.694a4,4,0,0,1-4.362,3.916l-14.346-1.3a4,4,0,0,1-3.626-3.674l-8.4-108.345a1,1,0,0,0-2,.039l-4.2,110.826a4,4,0,0,1-4,3.848H776.905a4,4,0,0,1-3.993-3.756L762.142,454.9l64-16Z" transform="translate(-213.01 -240.458)" fill="#2f2e41"/>
    <circle id="Ellipse_26" data-name="Ellipse 26" cx="24.561" cy="24.561" r="24.561" transform="translate(552.15 3.224)" fill="#ffb8b8"/>
    <path id="Path_169" data-name="Path 169" d="M759.951,461.067a4.469,4.469,0,0,1-1.365-3.165L756.93,339.46a28.5,28.5,0,0,1,19.282-27.441c2.3-10.44,14.548-11.747,21.687-11.591a11.085,11.085,0,0,1,8.977,4.923l5.118,7.677,11.28,6.612a28.528,28.528,0,0,1,13.47,30.816l-1.737,7.9a181.54,181.54,0,0,0,1.7,84.66L840.2,456.34a4.5,4.5,0,0,1-4.7,5.628l-4.059-.313a4.494,4.494,0,0,1-4.133-4.038l-.672-6.717a.5.5,0,0,0-1,0l-.65,6.5a4.5,4.5,0,0,1-4.408,4.052l-57.431.884h-.072a4.471,4.471,0,0,1-3.133-1.273Z" transform="translate(-213.01 -240.458)" fill="#3f3d56"/>
    <path id="Path_170" data-name="Path 170" d="M791.642,282.4c.1,3.472,2.511,5.481,5.471,7.3s6.419,2.607,9.808,3.368a3,3,0,0,0,4.405-2.625l3.108-11.823a74.841,74.841,0,0,0,2.393-11.537c.749-7.509-1.031-15.587-6.272-21.016s-14.331-7.358-20.612-3.175c-7.454-9.52-41.523,11.513-33.119,18.133,1.5,1.178,3.781-.312,5.678-.457s4.025.189,5.23,1.662c1.575,1.924.889,4.791,1.538,7.191a6.714,6.714,0,0,0,8.484,4.348,23.1,23.1,0,0,0,4.4-2.829c1.456-.97,3.3-1.686,4.934-1.074,2.16.806,2.927,3.45,3.122,5.748a53.234,53.234,0,0,0,1.432,6.787Z" transform="translate(-213.01 -240.458)" fill="#2f2e41"/>
    <path id="Path_171" data-name="Path 171" d="M572.9,107.768l-4,49-21,51,31-50Z" opacity="0.2"/>
    <path id="Path_172" data-name="Path 172" d="M756,467.218a10.056,10.056,0,0,0,.318-15.416l13.379-33.136-18.2,3.676-9.914,30.9A10.11,10.11,0,0,0,756,467.218Z" transform="translate(-213.01 -240.458)" fill="#ffb8b8"/>
    <path id="Path_173" data-name="Path 173" d="M755.022,452.6l-10.3-3.713a4.524,4.524,0,0,1-2.815-5.42l17-62.219,2.591-56.232a12.818,12.818,0,1,1,25.589,1.551l-4.63,61.573-21.657,61.718a4.488,4.488,0,0,1-5.772,2.742Z" transform="translate(-213.01 -240.458)" fill="#3f3d56"/>
    <path id="Path_174" data-name="Path 174" d="M861.207,470.468a10.056,10.056,0,0,0-5.646-14.348l-.421-35.732-15.381,10.4,2.758,32.337a10.11,10.11,0,0,0,18.691,7.339Z" transform="translate(-213.01 -240.458)" fill="#ffb8b8"/>
    <path id="Path_175" data-name="Path 175" d="M854.678,457.358l-10.939.543a4.524,4.524,0,0,1-4.686-3.917l-8.287-63.965-19.274-52.89A12.818,12.818,0,1,1,835.7,328.7l19.451,58.6,3.793,65.3a4.488,4.488,0,0,1-4.27,4.754Z" transform="translate(-213.01 -240.458)" fill="#3f3d56"/>
    <path id="Path_176" data-name="Path 176" d="M985.99,659.4h-381a1,1,0,0,1,0-2h381a1,1,0,0,1,0,2Z" transform="translate(-213.01 -240.458)" fill="#3f3d56"/>
    <path id="Path_177" data-name="Path 177" d="M536.229,443.5c-5.743,0-10.311-1.708-13.577-5.077-7.382-7.615-6.919-22.293-6.548-34.088.108-3.431.21-6.672.107-9.387v-.041a20.136,20.136,0,0,1,20.027-20.037h47.616c5.736,0,10.3,1.706,13.563,5.07,7.381,7.609,6.924,22.284,6.557,34.075-.107,3.438-.208,6.687-.1,9.406A20.149,20.149,0,0,1,583.833,443.5Zm-18.018-48.607c.1,2.78,0,6.047-.107,9.505-.36,11.417-.807,25.626,5.985,32.633,2.915,3.007,6.887,4.469,12.141,4.469h47.6a18.136,18.136,0,0,0,18.04-18.043c-.107-2.748,0-6.03.1-9.5.355-11.414.8-25.62-5.993-32.62-2.913-3-6.88-4.463-12.127-4.463H536.24a18.131,18.131,0,0,0-18.03,18.022Z" transform="translate(-213.01 -240.458)" fill="#3f3d56"/>
    <path id="Path_178" data-name="Path 178" d="M278.1,313.991a44.619,44.619,0,0,1-23.574-6.9c-10.339-6.424-18.145-16.713-20.373-26.851l-.223-1.016,2.794-.5c21.993-4.854,46.869,10.788,52.2,32.836l.234.967-.966.239A41.982,41.982,0,0,1,278.1,313.991Zm-41.751-33.172c2.4,9.3,9.683,18.634,19.233,24.569a41.688,41.688,0,0,0,31.146,5.663c-5.576-20.542-28.923-34.956-49.591-30.373Z" transform="translate(-213.01 -240.458)" fill="#3f3d56"/>
    <path id="Path_179" data-name="Path 179" d="M250.358,427.633c-6.543,0-11.858-2.928-14.979-8.269a20.762,20.762,0,0,1-.006-20.358c3.171-5.432,8.613-8.379,15.334-8.276H314.15c6.7-.085,12.145,2.848,15.317,8.287a20.762,20.762,0,0,1,0,20.355c-3.171,5.426-8.616,8.324-15.33,8.258H250.69Zm.037-34.9c-5.835,0-10.548,2.58-13.295,7.287a18.7,18.7,0,0,0,.006,18.34c2.793,4.781,7.6,7.369,13.569,7.275h63.475c5.973.1,10.8-2.492,13.588-7.268a18.7,18.7,0,0,0,0-18.338c-2.793-4.788-7.619-7.366-13.575-7.294H250.686l-.291,0Z" transform="translate(-213.01 -240.458)" fill="#3f3d56"/>
    <path id="Path_180" data-name="Path 180" d="M552.51,398.651h-20a5,5,0,0,1,0-10h20a5,5,0,0,1,0,10Z" transform="translate(-213.01 -240.458)" fill="#6c63ff"/>
    <path id="Path_181" data-name="Path 181" d="M552.51,414.651h-20a5,5,0,0,1,0-10h20a5,5,0,0,1,0,10Z" transform="translate(-213.01 -240.458)" fill="#6c63ff"/>
    <path id="Path_182" data-name="Path 182" d="M552.51,430.651h-20a5,5,0,0,1,0-10h20a5,5,0,0,1,0,10Z" transform="translate(-213.01 -240.458)" fill="#6c63ff"/>
    <path id="Path_183" data-name="Path 183" d="M587.51,398.651h-20a5,5,0,0,1,0-10h20a5,5,0,0,1,0,10Z" transform="translate(-213.01 -240.458)" fill="#6c63ff"/>
    <path id="Path_184" data-name="Path 184" d="M587.51,414.651h-20a5,5,0,0,1,0-10h20a5,5,0,0,1,0,10Z" transform="translate(-213.01 -240.458)" fill="#6c63ff"/>
    <path id="Path_185" data-name="Path 185" d="M587.51,430.651h-20a5,5,0,0,1,0-10h20a5,5,0,0,1,0,10Z" transform="translate(-213.01 -240.458)" fill="#6c63ff"/>
    <rect id="Rectangle_88" data-name="Rectangle 88" width="418.8" height="2" transform="translate(1.2 87.134)" fill="#3f3d56"/>
    <path id="Path_186" data-name="Path 186" d="M600.01,495.151h-354a33.037,33.037,0,0,1-33-33v-172a33.037,33.037,0,0,1,33-33h354a33.037,33.037,0,0,1,33,33v172A33.037,33.037,0,0,1,600.01,495.151Zm-354-236a31.035,31.035,0,0,0-31,31v172a31.035,31.035,0,0,0,31,31h354a31.035,31.035,0,0,0,31-31v-172a31.035,31.035,0,0,0-31-31Z" transform="translate(-213.01 -240.458)" fill="#3f3d56"/>
  </g>
</svg>
