<svg xmlns="http://www.w3.org/2000/svg" width="737.917" height="622.55" viewBox="0 0 737.917 622.55">
  <g id="Group_108" data-name="Group 108" transform="translate(0.005 0)">
    <path id="Path_208" data-name="Path 208" d="M968.956,622.708c-.155,3.822-4.019,82.723-57.024,125.835q-3.325,2.7-6.909,5.21l-1.8-1.761h1.046a4.662,4.662,0,0,0,4.661-4.661V591.808c1.108-5.967,2.155-11.829,3.108-17.537,5.169-31.024,7.562-57.231,3.688-68.118,1.678,4.206,35.364,90.223,17.071,177.866C950.912,659.212,968.107,633.17,968.956,622.708Z" transform="translate(-231.044 -138.78)" fill="#6c63ff"/>
    <path id="Path_209" data-name="Path 209" d="M903.015,148.341H264.789a7.778,7.778,0,0,0-7.769,7.769V747.582a7.772,7.772,0,0,0,7.769,7.769H903.015a7.751,7.751,0,0,0,7.665-6.557,6.678,6.678,0,0,0,.1-1.212V156.11a7.778,7.778,0,0,0-7.769-7.769Zm4.661,599.241a4.662,4.662,0,0,1-4.661,4.661H264.789a4.662,4.662,0,0,1-4.661-4.661V156.11a4.668,4.668,0,0,1,4.661-4.661H903.015a4.668,4.668,0,0,1,4.661,4.661Z" transform="translate(-231.044 -138.78)" fill="#e6e6e6"/>
    <path id="Path_210" data-name="Path 210" d="M605.122,206.8c-1.3,0-2.358,2.257-2.358,5.031V419.79c0,2.774,1.058,5.031,2.358,5.031H830.686c1.3,0,2.358-2.257,2.358-5.031V211.831c0-2.774-1.058-5.031-2.358-5.031Z" transform="translate(-231.044 -138.78)" fill="#e6e6e6"/>
    <path id="Path_40" data-name="Path 40" d="M338.673,206.4a3.755,3.755,0,1,0,0,7.509h177a3.755,3.755,0,1,0,.123-7.509H338.673Z" transform="translate(-231.044 -138.78)" fill="#e6e6e6"/>
    <path id="Path_40-2" data-name="Path 40" d="M338.673,241.618a3.755,3.755,0,1,0,0,7.509h177a3.755,3.755,0,1,0,.123-7.509H338.673Z" transform="translate(-231.044 -138.78)" fill="#e6e6e6"/>
    <path id="Path_40-3" data-name="Path 40" d="M338.673,276.837a3.755,3.755,0,1,0,0,7.509h177a3.755,3.755,0,1,0,.123-7.509H338.673Z" transform="translate(-231.044 -138.78)" fill="#e6e6e6"/>
    <path id="Path_40-4" data-name="Path 40" d="M338.673,312.056a3.755,3.755,0,1,0,0,7.509h177a3.755,3.755,0,1,0,.123-7.509H338.673Z" transform="translate(-231.044 -138.78)" fill="#e6e6e6"/>
    <path id="Path_40-5" data-name="Path 40" d="M338.673,347.275a3.755,3.755,0,1,0,0,7.509h177a3.755,3.755,0,1,0,.123-7.509H338.673Z" transform="translate(-231.044 -138.78)" fill="#e6e6e6"/>
    <path id="Path_40-6" data-name="Path 40" d="M338.673,382.494a3.755,3.755,0,1,0,0,7.509h177a3.755,3.755,0,1,0,.123-7.509H338.673Z" transform="translate(-231.044 -138.78)" fill="#e6e6e6"/>
    <path id="Path_40-7" data-name="Path 40" d="M338.673,417.713a3.755,3.755,0,1,0,0,7.509h177a3.755,3.755,0,1,0,.123-7.509H338.673Z" transform="translate(-231.044 -138.78)" fill="#e6e6e6"/>
    <path id="Path_40-8" data-name="Path 40" d="M339.309,491.784c-2.554.034-4.591,1.743-4.549,3.816.041,2.026,2.054,3.66,4.549,3.693H828.343c2.554.034,4.659-1.619,4.7-3.693s-1.995-3.782-4.549-3.816H339.309Z" transform="translate(-231.044 -138.78)" fill="#e6e6e6"/>
    <path id="Path_40-9" data-name="Path 40" d="M339.309,524.784c-2.554.034-4.591,1.743-4.549,3.816.041,2.026,2.054,3.66,4.549,3.693H828.343c2.554.034,4.659-1.619,4.7-3.693s-1.995-3.782-4.549-3.816H339.309Z" transform="translate(-231.044 -138.78)" fill="#e6e6e6"/>
    <path id="Path_40-10" data-name="Path 40" d="M339.309,557.784c-2.554.034-4.591,1.743-4.549,3.816.041,2.026,2.054,3.66,4.549,3.693H828.343c2.554.034,4.659-1.619,4.7-3.693s-1.995-3.782-4.549-3.816H339.309Z" transform="translate(-231.044 -138.78)" fill="#e6e6e6"/>
    <path id="Path_40-11" data-name="Path 40" d="M339.309,590.784c-2.554.034-4.591,1.743-4.549,3.816.041,2.026,2.054,3.66,4.549,3.693H828.343c2.554.034,4.659-1.619,4.7-3.693s-1.995-3.782-4.549-3.816H339.309Z" transform="translate(-231.044 -138.78)" fill="#e6e6e6"/>
    <path id="Path_40-12" data-name="Path 40" d="M339.309,623.784c-2.554.034-4.591,1.743-4.549,3.816.041,2.026,2.054,3.66,4.549,3.693H828.343c2.554.034,4.659-1.619,4.7-3.693s-1.995-3.782-4.549-3.816H339.309Z" transform="translate(-231.044 -138.78)" fill="#e6e6e6"/>
    <path id="Path_40-13" data-name="Path 40" d="M339.309,656.784c-2.554.034-4.591,1.743-4.549,3.816.041,2.026,2.054,3.66,4.549,3.693H828.343c2.554.034,4.659-1.619,4.7-3.693s-1.995-3.782-4.549-3.816H339.309Z" transform="translate(-231.044 -138.78)" fill="#e6e6e6"/>
    <path id="Path_40-14" data-name="Path 40" d="M339.309,689.784c-2.554.034-4.591,1.743-4.549,3.816.041,2.026,2.054,3.66,4.549,3.693H828.343c2.554.034,4.659-1.619,4.7-3.693s-1.995-3.782-4.549-3.816H339.309Z" transform="translate(-231.044 -138.78)" fill="#e6e6e6"/>
    <ellipse id="Ellipse_21" data-name="Ellipse 21" cx="70" cy="5.339" rx="70" ry="5.339" transform="translate(-0.005 611.872) rotate(-0.092)" fill="#e6e6e6"/>
    <path id="Path_211" data-name="Path 211" d="M292.9,557.387l-3.111,18.57a10.6,10.6,0,0,1-14.6,8.009h0a10.6,10.6,0,0,1-5.41-14.36l7.288-15.138,10.608-72.086,19.554,5.25Z" transform="translate(-231.044 -138.78)" fill="#ffb8b8"/>
    <path id="Path_212" data-name="Path 212" d="M46.613,579.563l-15.425,2.685,13.05-104.885L69.331,479.5Z" fill="#ffb8b8"/>
    <path id="Path_213" data-name="Path 213" d="M110.992,579.46l-15.425,2.685,13.05-104.885L133.71,479.4Z" fill="#ffb8b8"/>
    <circle id="Ellipse_22" data-name="Ellipse 22" cx="19.357" cy="19.357" r="19.357" transform="translate(79.835 249.289)" fill="#ffb8b8"/>
    <path id="Path_214" data-name="Path 214" d="M100.977,306.53l-22.35-2.092,3.137-34.589,26.071-.042Z" fill="#ffb8b8"/>
    <path id="Path_215" data-name="Path 215" d="M369.031,631.471,268.453,619.4c2.185-19.1,5.457-36.376,10.255-51.089,7.173-21.995,17.757-38.264,33.217-46.348L311.9,504.4l-8.4-53.588a13.037,13.037,0,0,1,12.859-15.055l17.244,1.568,21.731,26.066a34.953,34.953,0,0,1,7.836,26.722l-7.571,60.5Z" transform="translate(-231.044 -138.78)" fill="#2f2e41"/>
    <path id="Path_216" data-name="Path 216" d="M311.889,495.576,280.7,484.82l12.532-36.334a14.431,14.431,0,0,1,11.75-9.6h0a14.431,14.431,0,0,1,15.952,17.558Z" transform="translate(-231.044 -138.78)" fill="#2f2e41"/>
    <path id="Path_217" data-name="Path 217" d="M289.981,755.384c-12.8-.327-9.765,1.454-12.8-.327-8.97-5.271-12.655-11.765-13.831,1.618l-4.788.54c-4.227-14.353-3.037-25.327,2.606-33.524l1.584-7.451,15.428-1.089c1.366,14.4,7.634,25.87,14.5,30.87a5.328,5.328,0,0,1,1.781,2.182h0a5.15,5.15,0,0,1-4.48,7.182Z" transform="translate(-231.044 -138.78)" fill="#2f2e41"/>
    <path id="Path_218" data-name="Path 218" d="M354.36,755.28c-12.8-.327-9.765,1.454-12.8-.327-8.97-5.271-12.655-11.765-13.831,1.618l-4.788.54c-4.227-14.353-3.037-25.327,2.606-33.524l1.584-7.451,15.428-1.089c1.366,14.4,7.634,25.87,14.5,30.87a5.328,5.328,0,0,1,1.781,2.182h0a5.15,5.15,0,0,1-4.48,7.182Z" transform="translate(-231.044 -138.78)" fill="#2f2e41"/>
    <path id="Path_219" data-name="Path 219" d="M343.1,402.807l9.862-4.841,0-1.2c-.017-10.428-8-18.962-18.029-19.283h0S314.7,366.251,300.8,384.972s-6.415,51.088-6.415,51.088l20.858-3.226,1.188-7.064,3.494,6.629,12.191-.623s2.189-14.29,1.708-21.114C333.11,400.554,341.013,400.731,343.1,402.807Z" transform="translate(-231.044 -138.78)" fill="#2f2e41"/>
    <path id="Path_220" data-name="Path 220" d="M358.827,571.9l2.823,18.616a10.6,10.6,0,0,1-11.386,12.156h0a10.6,10.6,0,0,1-9.61-11.964l2.215-16.654-12.353-71.808,20.216-1.1Z" transform="translate(-231.044 -138.78)" fill="#ffb8b8"/>
    <path id="Path_221" data-name="Path 221" d="M354.994,504.332l-32.987.053-.062-38.434a14.431,14.431,0,0,1,7.957-12.92h0a14.431,14.431,0,0,1,20.824,11.364Z" transform="translate(-231.044 -138.78)" fill="#2f2e41"/>
    <path id="Path_222" data-name="Path 222" d="M470.137,289.976a2.19,2.19,0,0,1-.89-.182,2.144,2.144,0,0,1-1.31-1.971l-1.078-145.982a2.172,2.172,0,0,1,2.148-2.191l88.334-.869a2.172,2.172,0,0,1,2.191,2.148l1.078,145.982a2.17,2.17,0,0,1-3.61,1.645h0l-42.6-37.81a.719.719,0,0,0-.971.01l-41.85,38.64a2.148,2.148,0,0,1-1.441.58Z" transform="translate(-231.044 -138.78)" fill="#6c63ff"/>
    <path id="Path_223" data-name="Path 223" d="M529.254,189.152l-13.187.316-.316-13.187a4.4,4.4,0,1,0-8.791.211l.316,13.187L494.089,190a4.4,4.4,0,1,0,.211,8.791l13.187-.316.316,13.187a4.4,4.4,0,1,0,8.791-.211l-.316-13.187,13.187-.316a4.4,4.4,0,0,0-.211-8.791Z" transform="translate(-231.044 -138.78)" fill="#fff"/>
  </g>
</svg>
