<svg xmlns="http://www.w3.org/2000/svg" width="780.98" height="639.55" viewBox="0 0 780.98 639.55">
  <g id="Group_104" data-name="Group 104" transform="translate(0 0)">
    <path id="Path_87" data-name="Path 87" d="M748.69,767.385c-.14.8-.33,1.6-.55,2.39H699.73c-.81-.79-1.61-1.59-2.39-2.39a110.129,110.129,0,0,1-19.98-27.49,82.375,82.375,0,0,1-7.79-24.7c-2.52-16.95.4-34.52,10.37-48.2.25-.35.51-.7.77-1.04.1.44.21.87.33,1.31a114.433,114.433,0,0,0,5.97,17.64q.27.66.57,1.32a120.591,120.591,0,0,0,25.15,36.53q3.6,3.585,7.49,6.84,3,2.5,6.16,4.8c5,3.64,10.54,7.22,14.91,11.55a25.592,25.592,0,0,1,7.16,11.63c.02.08.04.15.06.23a22.585,22.585,0,0,1,.18,9.58Z" transform="translate(-209.51 -130.225)" fill="#f0f0f0"/>
    <path id="Path_88" data-name="Path 88" d="M732.41,767.385c-.02.8-.06,1.6-.12,2.39h-1.16c.07-.8.12-1.6.14-2.39a29.9,29.9,0,0,0-.16-4.44c-.55-4.78-2.54-9.42-6.76-12.04a18.794,18.794,0,0,0-3.92-1.8c-2.71-.92-5.6-1.4-8.36-2.07-.67-.16-1.33-.34-1.97-.53a25.776,25.776,0,0,1-9.74-5.17,40.893,40.893,0,0,1-8.48-10.86c-1.46-2.57-2.79-5.22-3.99-7.93-.16-.35-.32-.7-.46-1.05a104.579,104.579,0,0,1-7.49-54.5c.04-.36.09-.71.14-1.07.1-.72,1.21-.43,1.1.3-.05.35-.1.69-.14,1.04a102.767,102.767,0,0,0-.43,22.66c.04.39.08.77.11,1.14a102.364,102.364,0,0,0,7.91,30.31c.05.11.09.21.15.32v.02q1.485,3.36,3.21,6.6a44.16,44.16,0,0,0,8.09,11.21,24.691,24.691,0,0,0,9.75,5.71c.36.11.73.22,1.1.32.29.09.59.17.89.24,2.81.7,5.72,1.19,8.5,2.08a22.354,22.354,0,0,1,3.66,1.5,15.453,15.453,0,0,1,7.65,10.1,28.171,28.171,0,0,1,.78,7.91Z" transform="translate(-209.51 -130.225)" fill="#fff"/>
    <path id="Path_89" data-name="Path 89" d="M688.4,722.371a15.369,15.369,0,0,1-18.666-6.9c-.359-.644.625-1.233.985-.588a14.231,14.231,0,0,0,17.377,6.383c.692-.256.993.85.305,1.105Z" transform="translate(-209.51 -130.225)" fill="#fff"/>
    <path id="Path_90" data-name="Path 90" d="M709.683,745.552a29.622,29.622,0,0,0,1.536-21.533c-.22-.7.885-1.009,1.105-.305a30.811,30.811,0,0,1-1.644,22.4c-.32.667-1.315.1-1-.566Z" transform="translate(-209.51 -130.225)" fill="#fff"/>
    <path id="Path_91" data-name="Path 91" d="M680.267,689.986a8.7,8.7,0,0,0,6.626-4.923c.311-.67,1.306-.1,1,.566a9.748,9.748,0,0,1-7.318,5.463.592.592,0,0,1-.705-.4.576.576,0,0,1,.4-.705Z" transform="translate(-209.51 -130.225)" fill="#fff"/>
    <path id="Path_92" data-name="Path 92" d="M769.27,767.385c.021.53.01,1.05-.01,1.57-.01.27-.02.55-.04.82H723.91c-.19-.8-.37-1.59-.55-2.39a146.115,146.115,0,0,1-2.93-18.28c-.04-.41-.08-.81-.11-1.23v-.01a112.427,112.427,0,0,1-.1-18.26v-.01c.27-3.32.7-6.62,1.3-9.92a82.289,82.289,0,0,1,8.57-24.25c.02-.03.03-.06.05-.09,8.2-15.08,21.12-27.38,37.33-32.31h.01l.01-.01c.41-.11.82-.23,1.23-.35-.18.41-.36.84-.53,1.26-.01.01-.02.01-.01.02a113.943,113.943,0,0,0-5.84,17.64c-.12.47-.24.93-.34,1.4V683a120.72,120.72,0,0,0-1.9,44.42q.661,4.5,1.65,8.94c.63,2.85,1.38,5.67,2.23,8.46,1.71,5.59,3.83,11.44,4.79,17.21v.01a34.716,34.716,0,0,1,.5,5.35Z" transform="translate(-209.51 -130.225)" fill="#f0f0f0"/>
    <path id="Path_93" data-name="Path 93" d="M768.94,663.165c-.25.25-.5.5-.75.76-.01.01-.02.01-.01.02a101.919,101.919,0,0,0-13.96,17.8c-.21.32-.41.65-.6.98a101.506,101.506,0,0,0-11.94,28.99c-.03.1-.05.21-.08.32-.56,2.38-1.03,4.79-1.41,7.21a44.21,44.21,0,0,0-.3,13.82,24.513,24.513,0,0,0,4.35,10.43,2.086,2.086,0,0,0,.13.18c.18.25.37.51.56.75s.37.48.56.72c2.66,3.27,5.75,6.32,7.56,10.18a14.1,14.1,0,0,1,1.14,3.66,15.938,15.938,0,0,1-.88,8.4c-.08.2-.16.41-.24.61-.25.61-.53,1.2-.83,1.78h-1.3a20.777,20.777,0,0,0,1.13-2.39,14.992,14.992,0,0,0,.94-8.64,11.849,11.849,0,0,0-.59-1.98c-1.57-4.05-4.76-7.19-7.47-10.48-.57-.69-1.11-1.39-1.62-2.11a25.592,25.592,0,0,1-4.3-9.49,40.857,40.857,0,0,1-.24-13.78,84.183,84.183,0,0,1,1.6-8.73c.07-.38.16-.75.26-1.12a102.83,102.83,0,0,1,7.13-19.88,104.3,104.3,0,0,1,19.7-28.15l.01-.01c.24-.25.49-.5.74-.75C768.75,661.745,769.46,662.645,768.94,663.165Z" transform="translate(-209.51 -130.225)" fill="#fff"/>
    <path id="Path_94" data-name="Path 94" d="M740.9,712.34a15.369,15.369,0,0,1-10.749-16.748c.1-.731,1.241-.608,1.14.123a14.231,14.231,0,0,0,10.031,15.558C742.024,711.486,741.6,712.551,740.9,712.34Z" transform="translate(-209.51 -130.225)" fill="#fff"/>
    <path id="Path_95" data-name="Path 95" d="M743.932,743.661a29.621,29.621,0,0,0,14.191-16.268c.249-.7,1.314-.273,1.066.422a30.811,30.811,0,0,1-14.8,16.9C743.731,745.053,743.279,744,743.932,743.661Z" transform="translate(-209.51 -130.225)" fill="#fff"/>
    <path id="Path_96" data-name="Path 96" d="M753.9,681.584a8.7,8.7,0,0,0,8.254.058c.652-.348,1.1.706.456,1.052a9.748,9.748,0,0,1-9.132-.044.592.592,0,0,1-.322-.744.576.576,0,0,1,.744-.322Z" transform="translate(-209.51 -130.225)" fill="#fff"/>
    <circle id="Ellipse_12" data-name="Ellipse 12" cx="42.148" cy="42.148" r="42.148" transform="translate(560.139 30.254)" fill="#2f2e41"/>
    <path id="Path_97" data-name="Path 97" d="M583.038,604.544l-16.259-3.389,5.336-64.325,24,5Z" fill="#ffb6b6"/>
    <path id="Path_98" data-name="Path 98" d="M794.29,726.415l-17.2-4.66-2.75-.75-2.29,11.01-10.3,4.34-12.59,5.3-.02.01-4.77,2.01-.27.12c-.16.07-.31.14-.46.22h-.01c-.1.05-.2.11-.3.16a7.222,7.222,0,0,0-2.04,1.77,7.036,7.036,0,0,0,4.1,11.21l3.12.65,4.5.94,1.18.24,14.58,3.04v.01l7.22,1.5,7.54-9.8-.21,11.32,11.16,2.33.38.08.01-.08,4.86-39.49Z" transform="translate(-209.51 -130.225)" fill="#2f2e41"/>
    <path id="Path_99" data-name="Path 99" d="M667.928,587.822l-14.252,8.528L614,545.438l21.033-12.586Z" fill="#ffb6b6"/>
    <path id="Path_100" data-name="Path 100" d="M901.3,740.515l-23.24-32.39-5,2.6-15.81,8.23-2.53,1.31,5.78,9.65-12.57,27.61a7.025,7.025,0,0,0,5.39,9.86,7.108,7.108,0,0,0,2.06,0,6.872,6.872,0,0,0,2.56-.92l26.82-16.05-1.09-12.31,7.52,8.47Z" transform="translate(-209.51 -130.225)" fill="#2f2e41"/>
    <path id="Path_101" data-name="Path 101" d="M630.909,295.182l-78.275-3.01-4.515-81.285h90.316Z" fill="#ffb8b8"/>
    <path id="Path_102" data-name="Path 102" d="M890.1,481.19a12.538,12.538,0,0,1,.74-19.211L876.632,419.75l22.385,5.916,10.063,39.194A12.606,12.606,0,0,1,890.1,481.19Z" transform="translate(-209.51 -130.225)" fill="#ffb6b6"/>
    <circle id="Ellipse_13" data-name="Ellipse 13" cx="29.809" cy="29.809" r="29.809" transform="translate(566.042 56.758)" fill="#ffb8b8"/>
    <path id="Path_103" data-name="Path 103" d="M626.25,66,596.011,42.358,571.25,48,561.3,82.263l14.812-.74,4.138-12.532V81.316l6.836-.341,3.966-19.951,2.48,21.239,24.3-.644Z" fill="#2f2e41"/>
    <path id="Path_104" data-name="Path 104" d="M760.639,404.333s-26.078,45.327-.9,114.1L829.28,695.757,862.525,676.1l-33.888-76.342L856.2,506.317a162.4,162.4,0,0,0,5.751-65.387c-1.987-16.433-9.885-24.1-20.03-39.607C808.049,423.172,762.1,414.5,760.639,404.333Z" transform="translate(-209.51 -130.225)" fill="#2f2e41"/>
    <path id="Path_105" data-name="Path 105" d="M585.788,456.036,562.577,563.857l33.577,6.33,19.121-90.639Z" fill="#2f2e41"/>
    <path id="Path_106" data-name="Path 106" d="M826.345,254.225l-38.54.514-12.543,15.927-20.193,4.762-5.248,30.328c-2.624,15.162.162,24.764,7.87,38.082h0l.923,26.2-1.02,1.854a4.246,4.246,0,0,0,1.28,5.522h0a8.675,8.675,0,0,0-.238,5.709l.5,1.644s1.436,11.484,82.811-.594a8.024,8.024,0,0,0,6.781-6.893h0a5.991,5.991,0,0,0,1.109-6.9l-.166-.332.836-.984a6.443,6.443,0,0,0,.326-7.923h0l11.695-83.662-24.158-7.524Z" transform="translate(-209.51 -130.225)" fill="#e4e4e4"/>
    <path id="Path_107" data-name="Path 107" d="M852.878,285.482l9.647-8.007s8.578,2.535,14.568,19.43,26.546,145.06,26.546,145.06l-24.084-12.042L845.4,335.758Z" transform="translate(-209.51 -130.225)" fill="#e4e4e4"/>
    <path id="Path_108" data-name="Path 108" d="M638.612,421.932a12.538,12.538,0,0,0,14.381-12.76l41.659-15.8-18.774-13.551L639.2,396.9a12.606,12.606,0,0,0-.585,25.03Z" transform="translate(-209.51 -130.225)" fill="#ffb6b6"/>
    <path id="Path_109" data-name="Path 109" d="M766.256,284.751l-6.54-10.7s-8.937-.374-20.068,13.676c-5.706,7.2-42.688,68.989-42.688,68.989l-34.2,28.505,28,10,33-14,37-61Z" transform="translate(-209.51 -130.225)" fill="#e4e4e4"/>
    <path id="Path_110" data-name="Path 110" d="M908.433,209.243c-8.778-9.951-14.325-22.26-20.062-34.224s-12-24.053-21.77-33.028-23.86-14.356-36.558-10.5-21.851,18.992-16.466,31.12l.449,1.946c30.43,1.258,59.692,18.908,75,45.238,7.225,12.428,11.692,26.813,21.91,36.924A43.063,43.063,0,0,0,983,226.578C957.827,236.957,926.443,229.661,908.433,209.243Z" transform="translate(-209.51 -130.225)" fill="#2f2e41"/>
    <path id="Path_111" data-name="Path 111" d="M990.49,768.575a1.2,1.2,0,0,1-1.19,1.2H636a1.2,1.2,0,0,1,0-2.39H989.3a1.2,1.2,0,0,1,1.19,1.19Z" transform="translate(-209.51 -130.225)" fill="#3f3d56"/>
    <path id="Path_112" data-name="Path 112" d="M628.93,724.225H228.34a18.852,18.852,0,0,1-18.83-18.83V425.055a18.852,18.852,0,0,1,18.83-18.83H628.93a18.754,18.754,0,0,1,18.327,14.507h0a18.464,18.464,0,0,1,.5,4.323V705.4a18.851,18.851,0,0,1-18.83,18.83Zm-400.59-312a12.845,12.845,0,0,0-12.83,12.83V705.4a12.844,12.844,0,0,0,12.83,12.83H628.93a12.844,12.844,0,0,0,12.83-12.83V425.055a12.455,12.455,0,0,0-.336-2.917l0-.018a12.938,12.938,0,0,0-12.489-9.895Z" transform="translate(-209.51 -130.225)" fill="#3f3d56"/>
    <path id="Path_113" data-name="Path 113" d="M644.34,421.435a15.858,15.858,0,0,0-15.41-12.21H228.34a15.846,15.846,0,0,0-15.83,15.83V705.4a15.846,15.846,0,0,0,15.83,15.83H628.93a15.846,15.846,0,0,0,15.83-15.83V425.055a15.409,15.409,0,0,0-.42-3.62Z" transform="translate(-209.51 -130.225)" fill="#6c63ff"/>
    <path id="Path_114" data-name="Path 114" d="M380.683,432.645c-4.741-2.4-10.443-3.423-15.4-1.52-4.774,1.83-8.263,6.134-10.26,10.841s-2.7,9.845-3.377,14.912c-.271,2.018-.288,4.565,1.518,5.507a3.512,3.512,0,0,0,3.881-.863,12.961,12.961,0,0,0,2.272-3.561,33.786,33.786,0,0,1,29.149-17.8l4.827,2.161C389.388,438.706,385.423,435.047,380.683,432.645Z" transform="translate(-209.51 -130.225)" fill="#ff6582"/>
    <path id="Path_115" data-name="Path 115" d="M432.922,474.747c-3.746-6.2-8.184-12.809-15.135-14.832-8.05-2.343-16.319,2.311-23.333,6.9A679.939,679.939,0,0,0,333.945,511.4l.021.241,45.152-3.114c10.874-.75,22.122-1.6,31.732-6.747,3.647-1.952,7.2-4.56,11.333-4.741,5.134-.226,9.61,3.36,13.128,7.106,20.809,22.159,26.831,56.045,50.177,75.514A740.888,740.888,0,0,0,432.922,474.747Z" transform="translate(-209.51 -130.225)" fill="#fff"/>
    <path id="Path_116" data-name="Path 116" d="M286.593,624.791a244.877,244.877,0,0,1,32.53,3.068,252.735,252.735,0,0,1,91.383,33.909,245.01,245.01,0,0,1,26.678,18.879q1.556,1.267,3.092,2.56c.658.553,1.612-.392.95-.95A247.588,247.588,0,0,0,414.7,662.8a251.812,251.812,0,0,0-28.823-15.774,255.81,255.81,0,0,0-30.665-11.942,252.293,252.293,0,0,0-31.9-7.869,247.683,247.683,0,0,0-32.575-3.621q-2.07-.091-4.141-.147a.672.672,0,0,0,0,1.343Z" transform="translate(-209.51 -130.225)" fill="#fff"/>
    <path id="Path_117" data-name="Path 117" d="M284.017,582.335c19.511,1.365,39.03,2.752,58.464,5a439.9,439.9,0,0,1,57.833,10.187,265.746,265.746,0,0,1,48.9,17.322,205.812,205.812,0,0,1,41.2,25.668,159.535,159.535,0,0,1,32.431,35.14q1.68,2.517,3.253,5.1c.449.737,1.612.063,1.16-.678a157.02,157.02,0,0,0-31.27-36.637,200.556,200.556,0,0,0-40.452-26.973A256.024,256.024,0,0,0,408.2,598.23a406.049,406.049,0,0,0-57.73-11.269c-19.633-2.524-39.376-4.054-59.115-5.454q-3.668-.26-7.336-.516c-.863-.06-.859,1.283,0,1.343Z" transform="translate(-209.51 -130.225)" fill="#fff"/>
    <path id="Path_118" data-name="Path 118" d="M282.067,586.885c19.511,1.365,39.03,2.752,58.464,5a439.914,439.914,0,0,1,57.833,10.187,265.747,265.747,0,0,1,48.9,17.322,205.81,205.81,0,0,1,41.2,25.668,159.534,159.534,0,0,1,32.431,35.14q1.68,2.517,3.253,5.1c.449.737,1.612.063,1.16-.678a157.02,157.02,0,0,0-31.27-36.637,200.559,200.559,0,0,0-40.452-26.973,256.026,256.026,0,0,0-47.337-18.233,406.039,406.039,0,0,0-57.73-11.269c-19.633-2.524-39.376-4.054-59.115-5.454q-3.668-.26-7.336-.516c-.863-.06-.859,1.283,0,1.343Z" transform="translate(-209.51 -130.225)" fill="#fff"/>
    <path id="Path_119" data-name="Path 119" d="M562.176,664.934q-3.452-4.359-6.854-8.758Q527.6,620.32,503.206,582.042q-16.568-26-31.493-52.993-7.105-12.834-13.821-25.87-5.211-10.107-10.19-20.336c-.949-1.948-1.872-3.9-2.789-5.865-2.163-4.612-4.285-9.246-6.564-13.794-2.6-5.185-5.758-10.62-10.526-14.1a14.361,14.361,0,0,0-7.481-2.879c-3.882-.251-7.464,1.352-10.831,3.1a348.641,348.641,0,0,0-68.556,47.276,356.907,356.907,0,0,0-55.7,61.827c-.492.7-1.656.031-1.16-.676q2.935-4.15,5.986-8.211a358.879,358.879,0,0,1,91.623-85.462q8.912-5.776,18.16-11.01c3.107-1.76,6.228-3.5,9.4-5.126,3.112-1.6,6.416-3.036,9.971-3.089,12.1-.188,18.361,13.512,22.664,22.731q2.028,4.352,4.106,8.677,7.851,16.42,16.306,32.541,5.218,9.953,10.665,19.79,16.951,30.631,36.033,60.022,25.279,38.932,54.112,75.393C563.653,664.656,562.709,665.614,562.176,664.934Z" transform="translate(-209.51 -130.225)" fill="#fff"/>
    <path id="Path_120" data-name="Path 120" d="M493.877,553.749l18.024-6.592,8.949-3.273a91.52,91.52,0,0,1,8.835-3.043,13.938,13.938,0,0,1,8,.1,18.429,18.429,0,0,1,6.237,3.866,50.606,50.606,0,0,1,5.116,5.463c1.948,2.341,3.868,4.708,5.8,7.066q11.937,14.6,23.718,29.324t23.4,29.575q11.651,14.886,23.143,29.9,1.408,1.839,2.813,3.68c.518.678,1.685.01,1.16-.678q-11.576-15.162-23.313-30.2-11.766-15.074-23.7-30.02t-24.018-29.761q-3.012-3.691-6.034-7.374c-1.7-2.071-3.38-4.165-5.244-6.092-3.421-3.539-7.7-6.666-12.813-6.75a24.729,24.729,0,0,0-8.715,1.916c-3.013,1.09-6.019,2.2-9.029,3.3l-18.151,6.638-4.538,1.66c-.805.294-.457,1.593.357,1.3Z" transform="translate(-209.51 -130.225)" fill="#fff"/>
    <path id="Path_121" data-name="Path 121" d="M404.214,443.326l-1.205.592a32.464,32.464,0,0,0-61.511,11.7,32.131,32.131,0,0,0,5.305,20.525l-1.119.743a33.461,33.461,0,0,1-5.525-21.375,33.807,33.807,0,0,1,64.056-12.188Z" transform="translate(-209.51 -130.225)" fill="#ff6582"/>
    <path id="Path_122" data-name="Path 122" d="M316.053,479.423a29.1,29.1,0,0,0-29.306,2.1,417.992,417.992,0,0,1,47.555,11.1C327.815,488.816,322.74,482.86,316.053,479.423Z" transform="translate(-209.51 -130.225)" fill="#fff"/>
    <path id="Path_123" data-name="Path 123" d="M286.656,481.5l-1.763,1.433c.6-.5,1.216-.972,1.853-1.417Z" transform="translate(-209.51 -130.225)" fill="#fff"/>
    <path id="Path_124" data-name="Path 124" d="M543.24,553.815c-1.774-2.16-3.693-4.421-6.346-5.3l-2.478.1a281.04,281.04,0,0,0,74.855,85.577Z" transform="translate(-209.51 -130.225)" fill="#fff"/>
    <path id="Path_125" data-name="Path 125" d="M339.759,489.815c-.7-.784-1.4-1.567-2.109-2.351-5.579-6.17-11.565-12.268-19.225-15.8a27.893,27.893,0,0,0-11.686-2.709,33.348,33.348,0,0,0-12.133,2.646c-1.827.73-3.613,1.558-5.373,2.44-2.01,1.012-3.985,2.091-5.95,3.179q-5.534,3.062-10.924,6.394-10.725,6.629-20.779,14.269-5.212,3.962-10.208,8.184-4.647,3.922-9.107,8.055c-.636.587-1.585-.363-.949-.949.784-.73,1.576-1.455,2.368-2.171q3.358-3.036,6.823-5.955,6.319-5.332,12.966-10.253,10.336-7.656,21.383-14.273,5.521-3.3,11.193-6.331c1.142-.609,2.3-1.2,3.466-1.769a55.247,55.247,0,0,1,8.238-3.353,29.308,29.308,0,0,1,12.442-1.222,32.394,32.394,0,0,1,11.48,3.971c7.522,4.2,13.355,10.705,19.033,17.049C341.281,489.506,340.336,490.459,339.759,489.815Z" transform="translate(-209.51 -130.225)" fill="#fff"/>
    <path id="Path_126" data-name="Path 126" d="M35.666,373.557h-1.95V309.566h68.5v1.95H35.666Z" fill="#2f2e41"/>
    <path id="Path_127" data-name="Path 127" d="M404.534,373.557h-1.95V311.516h-66.55v-1.95h68.5Z" fill="#2f2e41"/>
    <path id="Path_128" data-name="Path 128" d="M404.534,560.434h-68.5v-1.95h66.55V496.443h1.95Z" fill="#2f2e41"/>
    <path id="Path_129" data-name="Path 129" d="M102.216,560.434h-68.5V496.443h1.95v62.041h66.55Z" fill="#2f2e41"/>
  </g>
</svg>
