<svg xmlns="http://www.w3.org/2000/svg" width="938.457" height="497.71" viewBox="0 0 938.457 497.71">
  <g id="Group_107" data-name="Group 107" transform="translate(0 0)">
    <path id="Path_180" data-name="Path 180" d="M820.385,236.787H319.117a13.426,13.426,0,0,0-13.426,13.426V610.542a13.426,13.426,0,0,0,13.426,13.426H820.385a13.426,13.426,0,0,0,13.426-13.426V250.213a13.426,13.426,0,0,0-13.426-13.426Zm-487.154,21.06a6.48,6.48,0,1,1,6.48-6.48,6.48,6.48,0,0,1-6.48,6.48Zm38.88,0a6.48,6.48,0,1,1,6.48-6.48,6.48,6.48,0,0,1-6.48,6.48Zm38.88,0a6.48,6.48,0,1,1,6.48-6.48,6.48,6.48,0,0,1-6.48,6.48Zm38.88,0a6.48,6.48,0,1,1,6.48-6.48,6.48,6.48,0,0,1-6.48,6.48Zm38.88,0a6.48,6.48,0,1,1,6.48-6.48,6.48,6.48,0,0,1-6.48,6.48Zm38.88,0a6.48,6.48,0,1,1,6.48-6.48,6.48,6.48,0,0,1-6.48,6.48Zm38.88,0a6.48,6.48,0,1,1,6.48-6.48,6.48,6.48,0,0,1-6.48,6.48Zm38.88,0a6.48,6.48,0,1,1,6.48-6.48,6.48,6.48,0,0,1-6.48,6.48Zm38.88,0a6.48,6.48,0,1,1,6.48-6.48,6.48,6.48,0,0,1-6.48,6.48Zm38.88,0a6.48,6.48,0,1,1,6.48-6.48,6.48,6.48,0,0,1-6.48,6.48Zm38.88,0a6.48,6.48,0,1,1,6.48-6.48,6.48,6.48,0,0,1-6.48,6.48Zm38.88,0a6.48,6.48,0,1,1,6.48-6.48,6.48,6.48,0,0,1-6.48,6.48Zm38.88,0a6.48,6.48,0,1,1,6.48-6.48,6.48,6.48,0,0,1-6.48,6.48Z" transform="translate(-130.771 -201.147)" fill="#cacaca"/>
    <path id="Path_181" data-name="Path 181" d="M794.465,201.147H293.2a13.426,13.426,0,0,0-13.426,13.426V574.9A13.426,13.426,0,0,0,293.2,588.328H794.465A13.426,13.426,0,0,0,807.891,574.9V214.573a13.426,13.426,0,0,0-13.426-13.426Zm-487.154,21.06a6.48,6.48,0,1,1,6.48-6.48,6.48,6.48,0,0,1-6.48,6.48Zm38.88,0a6.48,6.48,0,1,1,6.48-6.48,6.48,6.48,0,0,1-6.48,6.48Zm38.88,0a6.48,6.48,0,1,1,6.48-6.48,6.48,6.48,0,0,1-6.48,6.48Zm38.88,0a6.48,6.48,0,1,1,6.48-6.48,6.48,6.48,0,0,1-6.48,6.48Zm38.88,0a6.48,6.48,0,1,1,6.48-6.48,6.48,6.48,0,0,1-6.48,6.48Zm38.88,0a6.48,6.48,0,1,1,6.48-6.48,6.48,6.48,0,0,1-6.48,6.48Zm38.88,0a6.48,6.48,0,1,1,6.48-6.48,6.48,6.48,0,0,1-6.48,6.48Zm38.88,0a6.48,6.48,0,1,1,6.48-6.48,6.48,6.48,0,0,1-6.48,6.48Zm38.88,0a6.48,6.48,0,1,1,6.48-6.48,6.48,6.48,0,0,1-6.48,6.48Zm38.88,0a6.48,6.48,0,1,1,6.48-6.48,6.48,6.48,0,0,1-6.48,6.48Zm38.88,0a6.48,6.48,0,1,1,6.48-6.48,6.48,6.48,0,0,1-6.48,6.48Zm38.88,0a6.48,6.48,0,1,1,6.48-6.48,6.48,6.48,0,0,1-6.48,6.48Zm38.88,0a6.48,6.48,0,1,1,6.48-6.48,6.48,6.48,0,0,1-6.48,6.48Z" transform="translate(-130.771 -201.147)" fill="#f0f0f0"/>
    <path id="Path_182" data-name="Path 182" d="M416.828,399.459c-.027-14.3,3.521-28.8,11.546-40.762a51.664,51.664,0,0,1,33.432-22.25,41.831,41.831,0,0,1,20.084,1.166A36.3,36.3,0,0,1,497.27,347.5c8.042,8.6,13,22.314,8.337,33.76a21.072,21.072,0,0,1-11.994,11.723c-4.8,1.659-10.714.375-12.778-4.756-1.769-4.4.078-9.688,3.031-13.125a13.421,13.421,0,0,1,14.39-4.155c6.318,1.788,11.3,6.934,14.282,12.619,3.467,6.608,4.191,14.422,3.462,21.754-1.606,16.157-9.961,30.538-16.111,45.246-5.717,13.671-10.471,29.489-6.071,44.223a35.83,35.83,0,0,0,25.413,24.144c11.349,3.043,24.626.879,32.686-8.2,3.8-4.282,6.576-9.852,6.614-15.67a15.314,15.314,0,0,0-7.568-13.5c-9.821-5.5-23.083.154-27.2,10.2-2.518,6.151-2.041,13.222.335,19.338a35.728,35.728,0,0,0,12.36,15.707c5.744,4.267,12.454,7.1,19.233,9.274a109.362,109.362,0,0,0,21.692,4.709c14.06,1.5,28.733-.846,39.753-10.267,9.693-8.287,15.029-20.555,17.743-32.772,3.15-14.176,2.676-28.654,2.706-43.078.031-15.371.42-32.149,7.825-46.044,5.823-10.926,16.115-20.491,28.4-23.349a27.515,27.515,0,0,1,17,1.4c1.778.746,2.554-2.156.8-2.893-11.8-4.951-24.8-1.067-34.542,6.47a53.124,53.124,0,0,0-12.871,14.452,61.782,61.782,0,0,0-7.377,20.258c-5.684,28.985,3.1,60.277-10.135,87.826a47.668,47.668,0,0,1-10.8,14.848,40.533,40.533,0,0,1-18.328,9.315c-14.369,3.258-29.957.167-43.632-4.624-13.108-4.593-26.209-13.209-28.556-27.956-.967-6.078.4-12.872,5.042-17.185a17.953,17.953,0,0,1,14.659-4.526,12.213,12.213,0,0,1,10.3,10.111c.935,5.71-1.856,11.653-5.575,15.837-8.166,9.187-21.815,10.475-32.892,6.444a33.946,33.946,0,0,1-14.15-9.713,33.446,33.446,0,0,1-7.477-18.977c-1.3-15.729,5.505-30.857,11.9-44.8,6.51-14.209,13.5-29.812,11.853-45.838a35.366,35.366,0,0,0-7.746-19.383c-4.1-4.9-9.93-8.589-16.421-8.995a16.009,16.009,0,0,0-13.709,6.368c-3.07,3.923-4.863,9.28-3.558,14.227a12.191,12.191,0,0,0,11.6,8.808c5.739.1,11.2-3.339,14.879-7.524,8.309-9.459,7.5-23.458,2.115-34.158A40.361,40.361,0,0,0,476.637,333.3c-13.377-2.076-27.307,2.051-38.024,10.17-11.415,8.648-18.826,21.617-22.3,35.37a83.585,83.585,0,0,0-2.483,20.618,1.5,1.5,0,0,0,3,0Z" transform="translate(-130.771 -201.147)" fill="#6c63ff"/>
    <ellipse id="Ellipse_19" data-name="Ellipse 19" cx="32" cy="7" rx="32" ry="7" transform="translate(873.957 408.82)" fill="#cacaca"/>
    <rect id="Rectangle_157" data-name="Rectangle 157" width="2" height="132.689" transform="translate(903.457 278.962)" fill="#cacaca"/>
    <path id="Path_183" data-name="Path 183" d="M962.4,467.642l1.43.865a4.968,4.968,0,0,1,5.784-5.37l-.261-.343,29.114-20.3-.235-.021,1.321-39.321h0a8.989,8.989,0,0,1,13.838-11.228l-.661-3.452h11.5v-6h.654l-8.654-25a17,17,0,0,1,34,0l-7,25-1,.056v5.944h11.5l-.491,3.3a8.988,8.988,0,0,1,13.668,11.382h0l1.321,39.321-1.826.166a4.949,4.949,0,0,1-.2,7.834h2.027v38.524l-.431-.018a4.968,4.968,0,0,1-1.1,7.816l1.527.679-5.5,20.248-5.5-21.543,2-2.7.115.051a4.921,4.921,0,0,1,1.646-4.832l-1.761-.074-2-38.146h3.027a4.937,4.937,0,0,1-.841-7.2l-2.187.2-3.955-38.26h0a9.034,9.034,0,0,1-1.734-2.072l-4.815,32.333h-2.5v14h6.5v36h-2.037a5.969,5.969,0,0,1,.728,7h4.152l-2.312,49.736a5.924,5.924,0,0,1,.868,4.34l1.444-.1-2.168,57.723a6,6,0,1,1-8.495.148l-3.68-56.843,1.314-.094a5.891,5.891,0,0,1-.208-3.014h0l-3.105-51.892h1.81a5.969,5.969,0,0,1,.728-7h-12.074a5.969,5.969,0,0,1,.728,7h4.152l-2.312,49.736a5.924,5.924,0,0,1,.868,4.34l1.444-.1-2.168,57.723a6,6,0,1,1-8.495.148l-3.68-56.843,1.314-.094a5.889,5.889,0,0,1-.208-3.014h0l-3.105-51.892h1.81a5.969,5.969,0,0,1,.728-7h-3.037v-36h6.5v-14h-.5l-6.355-33.189a9.015,9.015,0,0,1-2.194,2.929h0l-3.955,38.26-2.187-.2a4.911,4.911,0,0,1,.067,6.322l.131.188-.841.524c-.066.055-.129.114-.2.165h-.067l-31.326,19.491-1.068-1.4a4.923,4.923,0,0,1-3.021,4.114l.108.065-1.074,3.188-20.817,7.812Z" transform="translate(-130.771 -201.147)" fill="#e4e4e4"/>
    <rect id="Rectangle_158" data-name="Rectangle 158" width="21.104" height="6.665" transform="translate(68.702 183.964) rotate(16.491)" fill="#cacaca"/>
    <path id="Path_184" data-name="Path 184" d="M222.679,380.105l-19.71-5.83a6.936,6.936,0,1,0-4.2,13.221,1.991,1.991,0,0,0,.26.089l19.71,5.84a1.225,1.225,0,0,0,.26.06h.01a6.938,6.938,0,1,0,3.67-13.381Z" transform="translate(-130.771 -201.147)" fill="#cacaca"/>
    <path id="Path_185" data-name="Path 185" d="M219.389,395.645l-.94-.28-20.24-5.99-.29-.09-7.87,2.43-17.31,47.37-19.24,52.64-22.38,61.24a5.225,5.225,0,0,0,.22,4.24,5.322,5.322,0,0,0,3.26,2.74l44.36,13.13a5.343,5.343,0,0,0,6.7-3.87l14.91-62.15,13.11-54.63,12-50.01.04-.15Z" transform="translate(-130.771 -201.147)" fill="#e4e4e4"/>
    <path id="Path_186" data-name="Path 186" d="M354.253,472.183c-.537,0-1.068.029-1.592.08A16.056,16.056,0,1,0,328,482.906,9.363,9.363,0,1,0,340.43,496.4a16.056,16.056,0,1,0,13.823-24.214Z" transform="translate(-130.771 -201.147)" fill="#6c63ff"/>
    <rect id="Rectangle_159" data-name="Rectangle 159" width="26.719" height="8.438" transform="translate(188.85 284.887) rotate(29.847)" fill="#cacaca"/>
    <path id="Path_187" data-name="Path 187" d="M313.028,450.064a8.8,8.8,0,0,0-12.23-2.18l-21.35,14.87a8.788,8.788,0,1,0,10.05,14.42l21.35-14.87a8.808,8.808,0,0,0,2.18-12.24Z" transform="translate(-130.771 -201.147)" fill="#cacaca"/>
    <path id="Path_188" data-name="Path 188" d="M341.079,504.824,340,504.2l-23.17-13.29-.35-.2-10.39.7-36.46,54.16-31.35,46.57-42.58,63.25a6.758,6.758,0,0,0,2.25,9.61l50.8,29.15a6.739,6.739,0,0,0,9.39-2.81l34.2-67.99,25.21-50.11,29.3-58.24.09-.17Z" transform="translate(-130.771 -201.147)" fill="#e4e4e4"/>
    <rect id="Rectangle_160" data-name="Rectangle 160" width="74.982" height="13.386" transform="translate(66.848 448.626) rotate(30)" fill="#cacaca"/>
    <path id="Path_189" data-name="Path 189" d="M811.312,316.093c2.591-8.257,8.482-15.83,16.63-18.621s20.08,1.461,26.206,7.566C865.354,316.206,865.7,329.877,858,342c-1.531-.081-6.815-.141-8.365-.2l-2.192-7.307v7.235c-12.1-.374-24.69-.14-37.291.1C809.022,333.248,808.722,324.35,811.312,316.093Z" transform="translate(-130.771 -201.147)" fill="#2f2e41"/>
    <path id="Path_190" data-name="Path 190" d="M757.423,447.026a7.634,7.634,0,0,1,4.934-10.615l32.559-61.432,13.142,10.143-36.136,57.2a7.675,7.675,0,0,1-14.5,4.707Z" transform="translate(-130.771 -201.147)" fill="#ffb6b6"/>
    <path id="Path_191" data-name="Path 191" d="M669.434,441.4H658.4l-5.249-42.558h16.285Z" fill="#ffb6b6"/>
    <path id="Path_192" data-name="Path 192" d="M737.434,441.4H726.4l-5.249-42.558h16.285Z" fill="#ffb6b6"/>
    <path id="Path_193" data-name="Path 193" d="M713.671,199.347l2.5,6.5-.5,6.5-48-6,1.5-5.5,5.5-6.5Z" fill="#ffb6b6"/>
    <circle id="Ellipse_20" data-name="Ellipse 20" cx="17.475" cy="17.475" r="17.475" transform="translate(680.726 105.903)" fill="#ffb7b7"/>
    <path id="Path_194" data-name="Path 194" d="M810.443,354.494l10-6,20-2,17.677,4-.177,32.5-11.214,28.52-47-6-1.786-10.06s-13-17.461,1-27.461Z" transform="translate(-130.771 -201.147)" fill="#6c63ff"/>
    <path id="Path_195" data-name="Path 195" d="M846.943,410.994V422.1s13,16.894,6,29.894L873,625H852L816.943,478.994,802,622H784l-3-159s1.943-41.006,12.943-48.006L799,406Z" transform="translate(-130.771 -201.147)" fill="#2f2e41"/>
    <path id="Path_196" data-name="Path 196" d="M816.965,301.77a21.949,21.949,0,0,1,33.371,19.156c-9.768.449-20.029.566-30.434.586l-2.459-6.018-1.45,6.023q-4.756,0-9.529-.013A22.411,22.411,0,0,1,816.965,301.77Z" transform="translate(-130.771 -201.147)" fill="#2f2e41"/>
    <path id="Path_197" data-name="Path 197" d="M702.424,394.621l-7.811-3.068a4.2,4.2,0,1,1,3.068-7.811l7.811,3.068a4.2,4.2,0,1,1-3.068,7.811Z" transform="translate(-130.771 -201.147)" fill="#6c63ff"/>
    <path id="Path_198" data-name="Path 198" d="M876.359,446.408,722,385.781a6.579,6.579,0,0,0-6.029.637l-6.177-2.426a5.771,5.771,0,0,0-7.481,3.262l-1.917,4.879a5.771,5.771,0,0,0,3.262,7.481l5.138,2.018a6.581,6.581,0,0,0,4,7.582l154.358,60.627a6.6,6.6,0,0,0,8.552-3.728l4.381-11.153A6.6,6.6,0,0,0,876.359,446.408Z" transform="translate(-130.771 -201.147)" fill="#3f3d56"/>
    <path id="Path_199" data-name="Path 199" d="M912.868,492.3l-58.031-22.793,12.272-31.245L925.14,461.06a10.4,10.4,0,0,1,5.87,13.464l-4.678,11.91A10.4,10.4,0,0,1,912.868,492.3Z" transform="translate(-130.771 -201.147)" fill="#2f2e41"/>
    <path id="Path_200" data-name="Path 200" d="M922.024,485.382l-28.272-11.1a5.8,5.8,0,0,1-3.273-7.511l.877-2.233a5.8,5.8,0,0,1,7.51-3.275l28.272,11.1a5.8,5.8,0,0,1,3.274,7.511l-.877,2.232a5.8,5.8,0,0,1-7.51,3.275Z" transform="translate(-130.771 -201.147)" fill="#6c63ff"/>
    <path id="Path_201" data-name="Path 201" d="M830.32,433.957a7.865,7.865,0,0,1,1.183.366l30.507-21-.7-8.97,13.4-2.823,2.779,15.76a5.974,5.974,0,0,1-3.241,6.4l-37.79,18.637a7.839,7.839,0,1,1-6.14-8.366Z" transform="translate(-130.771 -201.147)" fill="#ffb6b6"/>
    <path id="Path_202" data-name="Path 202" d="M186.777,372.1l-25.21,50.11L107.507,391l31.35-46.57Z" fill="#6c63ff"/>
    <path id="Path_203" data-name="Path 203" d="M82.907,251.277,69.8,305.907l-47.07-15.33,19.24-52.64Z" fill="#cacaca"/>
    <path id="Path_204" data-name="Path 204" d="M859,414l17,10c4-2,3.227-14.97.784-15.73l-1.842-43.276c-1-20-16.823-14.5-16.823-14.5l-7.177,1.5,5,21,5.431,36.234A5.984,5.984,0,0,0,859,414Z" transform="translate(-130.771 -201.147)" fill="#6c63ff"/>
    <path id="Path_205" data-name="Path 205" d="M810.831,354.22s-13.728.216-18.018,7.605c-3.435,5.915-9.855,29.51-12.28,38.691a6,6,0,0,0-5.933,4.341L793,412c4-2,2.89-4.772,1.876-6.206l6.853-10.279,8-4,3.318-35.4Z" transform="translate(-130.771 -201.147)" fill="#6c63ff"/>
    <path id="Path_206" data-name="Path 206" d="M805.141,663.5h-7.829l-1.4-7.392-3.579,7.392H771.57a4.668,4.668,0,0,1-2.652-8.509L785.5,643.539v-7.473l17.441,1.041Z" transform="translate(-130.771 -201.147)" fill="#2f2e41"/>
    <path id="Path_207" data-name="Path 207" d="M874.141,663.5h-7.829l-1.4-7.392-3.579,7.392H840.57a4.668,4.668,0,0,1-2.652-8.509L854.5,643.539v-7.473l17.441,1.041Z" transform="translate(-130.771 -201.147)" fill="#2f2e41"/>
  </g>
</svg>
