<?xml version="1.0" encoding="iso-8859-1"?>
<!-- Generator: Adobe Illustrator 19.0.0, SVG Export Plug-In . SVG Version: 6.00 Build 0)  -->
<svg version="1.1" id="Capa_1" xmlns="http://www.w3.org/2000/svg" xmlns:xlink="http://www.w3.org/1999/xlink" x="0px" y="0px"
	 viewBox="0 0 512 512" style="enable-background:new 0 0 512 512;" xml:space="preserve">
<g>
	<g>
		<path d="M256,479c-18.499,0-35.96-0.83-52-2.432v13.319c0,3.371,1.161,11.726,11.916,16.485c3.015,1.334,6.761,2.41,11.454,3.288
			c8.06,1.509,18.582,2.34,29.63,2.34c11.048,0,21.57-0.831,29.63-2.339c4.693-0.878,8.439-1.954,11.454-3.288
			c10.755-4.76,11.916-13.115,11.916-16.486v-13.516C293.419,478.106,275.266,479,256,479z"/>
	</g>
</g>
<g>
	<g>
		<path d="M264,308.213l-18.037,18.037l110.586,110.586c10.213-3.401,18.169-7.482,23.852-12.222L264,308.213z"/>
	</g>
</g>
<g>
	<g>
		<path d="M354.174,166.784c-10.053,2.596-21.336,4.71-33.607,6.333c0.011-0.001,0.022-0.003,0.033-0.004L121,372.713V404
			c0,1.719,0.337,3.995,0.393,4.395L366.719,163.07c0-0.001,0.001-0.002,0.002-0.002
			C362.773,164.403,358.598,165.642,354.174,166.784z"/>
	</g>
</g>
<g>
	<g>
		<path d="M121.393,408.394l-0.004,0.004C121.405,408.486,121.404,408.474,121.393,408.394z"/>
	</g>
</g>
<g>
	<g>
		<path d="M157.826,166.784c-14.897-3.847-27.032-8.759-36.826-14.907v99.91l77.776-77.776
			C183.636,172.305,169.851,169.889,157.826,166.784z"/>
	</g>
</g>
<g>
	<g>
		<g>
			<path d="M238.461,176.735c0.005,0,0.011,0,0.017,0l0,0C238.472,176.735,238.467,176.735,238.461,176.735z"/>
			<polygon points="274.583,176.704 274.583,176.704 274.59,176.704 			"/>
			<path d="M256,177c-5.956,0-11.793-0.096-17.522-0.265L121,294.213v36.074l153.583-153.583C268.514,176.895,262.324,177,256,177z"
				/>
		</g>
	</g>
</g>
<g>
	<g>
		<polygon points="324.463,247.75 391,314.287 391,181.213 		"/>
	</g>
</g>
<g>
	<g>
		<polygon points="303.25,268.963 285.213,287 391,392.787 391,356.713 		"/>
	</g>
</g>
<g>
	<g>
		<path d="M224.75,347.463l-83.477,83.477c6.481,3.391,14.497,6.329,24.053,8.797C188.795,445.797,220.15,449,256,449
			c24.424,0,46.754-1.49,65.933-4.354L224.75,347.463z"/>
	</g>
</g>
<g>
	<g>
		<path d="M346.674,66.263c-10.69-2.76-23.032-4.921-36.674-6.463v22.087c0,3.371-1.161,11.726-11.916,16.485
			c-3.015,1.334-6.761,2.41-11.454,3.288c-8.06,1.509-18.582,2.34-29.63,2.34c-11.048,0-21.57-0.831-29.63-2.339
			c-4.693-0.878-8.439-1.954-11.454-3.288C205.161,93.613,204,85.258,204,81.887V59.581c-14.438,1.553-27.464,3.788-38.674,6.682
			C135.914,73.858,121,85.881,121,102s14.914,28.142,44.326,35.737C188.795,143.797,220.15,147,256,147
			c35.85,0,67.205-3.203,90.674-9.263C376.086,130.142,391,118.119,391,102S376.086,73.858,346.674,66.263z"/>
	</g>
</g>
<g>
	<g>
		<path d="M256,57c-7.548,0-14.882,0.151-22,0.431v14.935C238.988,73.203,246.793,74,257,74c10.207,0,18.012-0.797,23-1.634V57.513
			C272.262,57.178,264.257,57,256,57z"/>
	</g>
</g>
<g>
	<g>
		<path d="M310,21c0-3.498-1.241-12.096-12.74-16.388c-2.893-1.08-6.507-1.954-11.05-2.671C278.282,0.689,267.909,0,257,0
			s-21.282,0.689-29.209,1.941c-4.543,0.717-8.157,1.591-11.05,2.671C205.241,8.904,204,17.502,204,21c0,0.297,0.01,0.635,0.034,1
			H204v37.581c9.426-1.014,19.458-1.734,30-2.15V40.872C240.81,41.605,248.751,42,257,42c8.249,0,16.19-0.395,23-1.128v16.642
			c10.557,0.458,20.59,1.223,30,2.287V22h-0.034C309.989,21.635,310,21.297,310,21z"/>
	</g>
</g>
<g>
</g>
<g>
</g>
<g>
</g>
<g>
</g>
<g>
</g>
<g>
</g>
<g>
</g>
<g>
</g>
<g>
</g>
<g>
</g>
<g>
</g>
<g>
</g>
<g>
</g>
<g>
</g>
<g>
</g>
</svg>
