{
  "accessors": [
    {
      "bufferView": 1,
      "componentType": 5126,
      "count": 65532,
      "max": [
        0.03776208683848381,
        0.042365092784166336,
        0.048179853707551956
      ],
      "min": [
        -0.037751886993646622,
        -0.039623226970434189,
        -0.023751445114612579
      ],
      "type": "VEC3"
    },
    {
      "bufferView": 1,
      "byteOffset": 786384,
      "componentType": 5126,
      "count": 65532,
      "max": [
        1,
        1,
        0.99318218231201172
      ],
      "min": [
        -0.99928832054138184,
        -1,
        -1
      ],
      "type": "VEC3"
    },
    {
      "bufferView": 0,
      "componentType": 5125,
      "count": 384597,
      "max": [
        65531
      ],
      "min": [
        0
      ],
      "type": "SCALAR"
    },
    {
      "bufferView": 1,
      "byteOffset": 1572768,
      "componentType": 5126,
      "count": 65532,
      "max": [
        0.037990596145391464,
        0.06754273921251297,
        0.058638330549001694
      ],
      "min": [
        -0.037986084818840027,
        -0.039857193827629089,
        -0.020657913759350777
      ],
      "type": "VEC3"
    },
    {
      "bufferView": 1,
      "byteOffset": 2359152,
      "componentType": 5126,
      "count": 65532,
      "max": [
        1,
        0.99998629093170166,
        1
      ],
      "min": [
        -0.99999988079071045,
        -0.9999997615814209,
        -0.9998704195022583
      ],
      "type": "VEC3"
    },
    {
      "bufferView": 0,
      "byteOffset": 1538388,
      "componentType": 5125,
      "count": 384978,
      "max": [
        65531
      ],
      "min": [
        0
      ],
      "type": "SCALAR"
    },
    {
      "bufferView": 1,
      "byteOffset": 3145536,
      "componentType": 5126,
      "count": 28101,
      "max": [
        0.037919949740171432,
        0.035922843962907791,
        0.058638330549001694
      ],
      "min": [
        -0.037918064743280411,
        -0.039782531559467316,
        -0.023751445114612579
      ],
      "type": "VEC3"
    },
    {
      "bufferView": 1,
      "byteOffset": 3482748,
      "componentType": 5126,
      "count": 28101,
      "max": [
        1,
        1,
        1
      ],
      "min": [
        -1,
        -1,
        -1
      ],
      "type": "VEC3"
    },
    {
      "bufferView": 0,
      "byteOffset": 3078300,
      "componentType": 5125,
      "count": 147729,
      "max": [
        28100
      ],
      "min": [
        0
      ],
      "type": "SCALAR"
    }
  ],
  "asset": {
    "extras": {
      "author": "YouniqueĪdeaStudio (https://sketchfab.com/sinnervoncrawsz)",
      "license": "CC-BY-4.0 (http://creativecommons.org/licenses/by/4.0/)",
      "source": "https://sketchfab.com/3d-models/mug-cup-371febc7198f40179b9b84e60bfcf1ab",
      "title": "MUG - CUP"
    },
    "generator": "Sketchfab-10.18.0",
    "version": "2.0"
  },
  "bufferViews": [
    {
      "buffer": 0,
      "byteLength": 3669216,
      "byteOffset": 0,
      "name": "floatBufferViews",
      "target": 34963
    },
    {
      "buffer": 0,
      "byteLength": 3819960,
      "byteOffset": 3669216,
      "byteStride": 12,
      "name": "floatBufferViews",
      "target": 34962
    }
  ],
  "buffers": [
    {
      "byteLength": 7489176,
      "uri": "scene.bin"
    }
  ],
  "materials": [
    {
      "doubleSided": true,
      "name": "Scene_-_Root",
      "pbrMetallicRoughness": {
        "baseColorFactor": [
          1,
          1,
          1,
          1
        ],
        "metallicFactor": 0,
        "roughnessFactor": 0.75
      }
    }
  ],
  "meshes": [
    {
      "name": "CUP__0",
      "primitives": [
        {
          "attributes": {
            "NORMAL": 1,
            "POSITION": 0
          },
          "indices": 2,
          "material": 0,
          "mode": 4
        }
      ]
    },
    {
      "name": "CUP__0",
      "primitives": [
        {
          "attributes": {
            "NORMAL": 4,
            "POSITION": 3
          },
          "indices": 5,
          "material": 0,
          "mode": 4
        }
      ]
    },
    {
      "name": "CUP__0",
      "primitives": [
        {
          "attributes": {
            "NORMAL": 7,
            "POSITION": 6
          },
          "indices": 8,
          "material": 0,
          "mode": 4
        }
      ]
    }
  ],
  "nodes": [
    {
      "children": [
        1
      ],
      "name": "RootNode (gltf orientation matrix)",
      "rotation": [
        -0.70710678118654746,
        -0,
        -0,
        0.70710678118654757
      ]
    },
    {
      "children": [
        2
      ],
      "matrix": [
        0.012884384952485561,
        0,
        0,
        0,
        0,
        0.012884384952485561,
        0,
        0,
        0,
        0,
        0.012884384952485561,
        0,
        0,
        3.3279980016232003e-07,
        3.0243344895097835e-07,
        1
      ],
      "name": "RootNode (model correction matrix)"
    },
    {
      "children": [
        3
      ],
      "matrix": [
        1,
        0,
        0,
        0,
        0,
        0,
        1,
        0,
        0,
        -1,
        0,
        0,
        0,
        0,
        0,
        1
      ],
      "name": "52ad5ec1f3fe4b8b92a476046e8f6efe.fbx"
    },
    {
      "children": [
        4
      ],
      "name": "RootNode"
    },
    {
      "children": [
        5,
        6,
        7
      ],
      "matrix": [
        100,
        0,
        0,
        0,
        -0,
        -1.6292067939183141e-05,
        -99.999999999998678,
        0,
        0,
        99.999999999998678,
        -1.6292067939183141e-05,
        0,
        -0.17586055397987366,
        1.0992776878993027e-05,
        6.2321007021637342e-08,
        1
      ],
      "name": "CUP"
    },
    {
      "mesh": 0,
      "name": "CUP__0"
    },
    {
      "mesh": 1,
      "name": "CUP__0"
    },
    {
      "mesh": 2,
      "name": "CUP__0"
    }
  ],
  "scene": 0,
  "scenes": [
    {
      "name": "OSG_Scene",
      "nodes": [
        0
      ]
    }
  ]
}

