<svg xmlns="http://www.w3.org/2000/svg" xmlns:xlink="http://www.w3.org/1999/xlink" width="1040.32" height="649.174" viewBox="0 0 1040.32 649.174">
  <defs>
    <linearGradient id="linear-gradient" x1="0.5" y1="1" x2="0.5" gradientUnits="objectBoundingBox">
      <stop offset="0" stop-color="gray" stop-opacity="0.251"/>
      <stop offset="0.54" stop-color="gray" stop-opacity="0.122"/>
      <stop offset="1" stop-color="gray" stop-opacity="0.102"/>
    </linearGradient>
    <linearGradient id="linear-gradient-2" x1="0.5" x2="0.5" y2="0" xlink:href="#linear-gradient"/>
  </defs>
  <g id="Group_104" data-name="Group 104" transform="translate(0 0.014)">
    <rect id="Rectangle_70" data-name="Rectangle 70" width="103" height="41" rx="8.84" transform="translate(160.32 408.16)" fill="#6c63ff"/>
    <rect id="Rectangle_71" data-name="Rectangle 71" width="103" height="41" rx="8.84" transform="translate(263.32 408.16)" fill="#6c63ff"/>
    <rect id="Rectangle_72" data-name="Rectangle 72" width="103" height="41" rx="8.84" transform="translate(263.32 408.16)" opacity="0.1"/>
    <rect id="Rectangle_73" data-name="Rectangle 73" width="103" height="41" rx="8.84" transform="translate(366.32 408.16)" fill="#6c63ff"/>
    <rect id="Rectangle_74" data-name="Rectangle 74" width="103" height="41" rx="8.84" transform="translate(469.32 408.16)" fill="#6c63ff"/>
    <rect id="Rectangle_75" data-name="Rectangle 75" width="103" height="41" rx="8.84" transform="translate(469.32 408.16)" opacity="0.1"/>
    <rect id="Rectangle_76" data-name="Rectangle 76" width="103" height="41" rx="8.84" transform="translate(572.32 408.16)" fill="#6c63ff"/>
    <rect id="Rectangle_77" data-name="Rectangle 77" width="103" height="41" rx="8.84" transform="translate(675.32 408.16)" fill="#6c63ff"/>
    <rect id="Rectangle_78" data-name="Rectangle 78" width="103" height="41" rx="8.84" transform="translate(675.32 408.16)" opacity="0.1"/>
    <rect id="Rectangle_79" data-name="Rectangle 79" width="103" height="41" rx="8.84" transform="translate(778.32 408.16) rotate(180)" fill="#6c63ff"/>
    <rect id="Rectangle_80" data-name="Rectangle 80" width="103" height="41" rx="8.84" transform="translate(675.32 408.16) rotate(180)" fill="#6c63ff"/>
    <rect id="Rectangle_81" data-name="Rectangle 81" width="103" height="41" rx="8.84" transform="translate(675.32 408.16) rotate(180)" opacity="0.1"/>
    <rect id="Rectangle_82" data-name="Rectangle 82" width="103" height="41" rx="8.84" transform="translate(572.32 408.16) rotate(180)" fill="#6c63ff"/>
    <rect id="Rectangle_83" data-name="Rectangle 83" width="103" height="41" rx="8.84" transform="translate(469.32 408.16) rotate(180)" fill="#6c63ff"/>
    <rect id="Rectangle_84" data-name="Rectangle 84" width="103" height="41" rx="8.84" transform="translate(469.32 408.16) rotate(180)" opacity="0.1"/>
    <rect id="Rectangle_85" data-name="Rectangle 85" width="103" height="41" rx="8.84" transform="translate(366.32 408.16) rotate(180)" fill="#6c63ff"/>
    <rect id="Rectangle_86" data-name="Rectangle 86" width="103" height="41" rx="8.84" transform="translate(263.32 408.16) rotate(180)" fill="#6c63ff"/>
    <rect id="Rectangle_87" data-name="Rectangle 87" width="103" height="41" rx="8.84" transform="translate(263.32 408.16) rotate(180)" opacity="0.1"/>
    <rect id="Rectangle_88" data-name="Rectangle 88" width="103" height="41" rx="8.84" transform="translate(160.32 326.16)" fill="#6c63ff"/>
    <rect id="Rectangle_89" data-name="Rectangle 89" width="103" height="41" rx="8.84" transform="translate(263.32 326.16)" fill="#6c63ff"/>
    <rect id="Rectangle_90" data-name="Rectangle 90" width="103" height="41" rx="8.84" transform="translate(263.32 326.16)" opacity="0.1"/>
    <rect id="Rectangle_91" data-name="Rectangle 91" width="103" height="41" rx="8.84" transform="translate(366.32 326.16)" fill="#6c63ff"/>
    <rect id="Rectangle_92" data-name="Rectangle 92" width="103" height="41" rx="8.84" transform="translate(469.32 326.16)" fill="#6c63ff"/>
    <rect id="Rectangle_93" data-name="Rectangle 93" width="103" height="41" rx="8.84" transform="translate(469.32 326.16)" opacity="0.1"/>
    <rect id="Rectangle_94" data-name="Rectangle 94" width="103" height="41" rx="8.84" transform="translate(572.32 326.16)" fill="#6c63ff"/>
    <rect id="Rectangle_95" data-name="Rectangle 95" width="103" height="41" rx="8.84" transform="translate(675.32 326.16)" fill="#6c63ff"/>
    <rect id="Rectangle_96" data-name="Rectangle 96" width="103" height="41" rx="8.84" transform="translate(675.32 326.16)" opacity="0.1"/>
    <rect id="Rectangle_97" data-name="Rectangle 97" width="103" height="41" rx="8.84" transform="translate(778.32 326.16) rotate(180)" fill="#6c63ff"/>
    <rect id="Rectangle_98" data-name="Rectangle 98" width="103" height="41" rx="8.84" transform="translate(675.32 326.16) rotate(180)" fill="#6c63ff"/>
    <rect id="Rectangle_99" data-name="Rectangle 99" width="103" height="41" rx="8.84" transform="translate(675.32 326.16) rotate(180)" opacity="0.1"/>
    <rect id="Rectangle_100" data-name="Rectangle 100" width="103" height="41" rx="8.84" transform="translate(572.32 326.16) rotate(180)" fill="#6c63ff"/>
    <rect id="Rectangle_101" data-name="Rectangle 101" width="103" height="41" rx="8.84" transform="translate(469.32 326.16) rotate(180)" fill="#6c63ff"/>
    <rect id="Rectangle_102" data-name="Rectangle 102" width="103" height="41" rx="8.84" transform="translate(469.32 326.16) rotate(180)" opacity="0.1"/>
    <rect id="Rectangle_103" data-name="Rectangle 103" width="103" height="41" rx="8.84" transform="translate(366.32 326.16) rotate(180)" fill="#6c63ff"/>
    <rect id="Rectangle_104" data-name="Rectangle 104" width="103" height="41" rx="8.84" transform="translate(263.32 326.16) rotate(180)" fill="#6c63ff"/>
    <rect id="Rectangle_105" data-name="Rectangle 105" width="103" height="41" rx="8.84" transform="translate(263.32 326.16) rotate(180)" opacity="0.1"/>
    <rect id="Rectangle_106" data-name="Rectangle 106" width="103" height="41" rx="8.84" transform="translate(160.32 246.16)" fill="#6c63ff"/>
    <rect id="Rectangle_107" data-name="Rectangle 107" width="103" height="41" rx="8.84" transform="translate(263.32 246.16)" fill="#6c63ff"/>
    <rect id="Rectangle_108" data-name="Rectangle 108" width="103" height="41" rx="8.84" transform="translate(263.32 246.16)" opacity="0.1"/>
    <rect id="Rectangle_109" data-name="Rectangle 109" width="103" height="41" rx="8.84" transform="translate(366.32 246.16)" fill="#6c63ff"/>
    <rect id="Rectangle_110" data-name="Rectangle 110" width="103" height="41" rx="8.84" transform="translate(469.32 246.16)" fill="#6c63ff"/>
    <rect id="Rectangle_111" data-name="Rectangle 111" width="103" height="41" rx="8.84" transform="translate(469.32 246.16)" opacity="0.1"/>
    <rect id="Rectangle_112" data-name="Rectangle 112" width="103" height="41" rx="8.84" transform="translate(572.32 246.16)" fill="#6c63ff"/>
    <rect id="Rectangle_113" data-name="Rectangle 113" width="103" height="41" rx="8.84" transform="translate(675.32 246.16)" fill="#6c63ff"/>
    <rect id="Rectangle_114" data-name="Rectangle 114" width="103" height="41" rx="8.84" transform="translate(675.32 246.16)" opacity="0.1"/>
    <rect id="Rectangle_115" data-name="Rectangle 115" width="103" height="41" rx="8.84" transform="translate(778.32 246.16) rotate(180)" fill="#6c63ff"/>
    <rect id="Rectangle_116" data-name="Rectangle 116" width="103" height="41" rx="8.84" transform="translate(675.32 246.16) rotate(180)" fill="#6c63ff"/>
    <rect id="Rectangle_117" data-name="Rectangle 117" width="103" height="41" rx="8.84" transform="translate(675.32 246.16) rotate(180)" opacity="0.1"/>
    <rect id="Rectangle_118" data-name="Rectangle 118" width="103" height="41" rx="8.84" transform="translate(572.32 246.16) rotate(180)" fill="#6c63ff"/>
    <rect id="Rectangle_119" data-name="Rectangle 119" width="103" height="41" rx="8.84" transform="translate(469.32 246.16) rotate(180)" fill="#6c63ff"/>
    <rect id="Rectangle_120" data-name="Rectangle 120" width="103" height="41" rx="8.84" transform="translate(469.32 246.16) rotate(180)" opacity="0.1"/>
    <rect id="Rectangle_121" data-name="Rectangle 121" width="103" height="41" rx="8.84" transform="translate(366.32 246.16) rotate(180)" fill="#6c63ff"/>
    <rect id="Rectangle_122" data-name="Rectangle 122" width="103" height="41" rx="8.84" transform="translate(263.32 246.16) rotate(180)" fill="#6c63ff"/>
    <rect id="Rectangle_123" data-name="Rectangle 123" width="103" height="41" rx="8.84" transform="translate(263.32 246.16) rotate(180)" opacity="0.1"/>
    <rect id="Rectangle_124" data-name="Rectangle 124" width="103" height="41" rx="8.84" transform="translate(160.32 164.16)" fill="#6c63ff"/>
    <rect id="Rectangle_125" data-name="Rectangle 125" width="103" height="41" rx="8.84" transform="translate(263.32 164.16)" fill="#6c63ff"/>
    <rect id="Rectangle_126" data-name="Rectangle 126" width="103" height="41" rx="8.84" transform="translate(263.32 164.16)" opacity="0.1"/>
    <rect id="Rectangle_127" data-name="Rectangle 127" width="103" height="41" rx="8.84" transform="translate(366.32 164.16)" fill="#6c63ff"/>
    <rect id="Rectangle_128" data-name="Rectangle 128" width="103" height="41" rx="8.84" transform="translate(469.32 164.16)" fill="#6c63ff"/>
    <rect id="Rectangle_129" data-name="Rectangle 129" width="103" height="41" rx="8.84" transform="translate(469.32 164.16)" opacity="0.1"/>
    <rect id="Rectangle_130" data-name="Rectangle 130" width="103" height="41" rx="8.84" transform="translate(572.32 164.16)" fill="#6c63ff"/>
    <rect id="Rectangle_131" data-name="Rectangle 131" width="103" height="41" rx="8.84" transform="translate(675.32 164.16)" fill="#6c63ff"/>
    <rect id="Rectangle_132" data-name="Rectangle 132" width="103" height="41" rx="8.84" transform="translate(675.32 164.16)" opacity="0.1"/>
    <rect id="Rectangle_133" data-name="Rectangle 133" width="111" height="44.18" rx="8.84" transform="translate(667.32 27.57)" fill="url(#linear-gradient)"/>
    <rect id="Rectangle_134" data-name="Rectangle 134" width="103" height="41" rx="8.84" transform="translate(774.32 70.16) rotate(180)" fill="#6c63ff"/>
    <rect id="Rectangle_135" data-name="Rectangle 135" width="103" height="41" rx="8.84" transform="translate(675.32 164.16) rotate(180)" fill="#6c63ff"/>
    <rect id="Rectangle_136" data-name="Rectangle 136" width="103" height="41" rx="8.84" transform="translate(675.32 164.16) rotate(180)" opacity="0.1"/>
    <rect id="Rectangle_137" data-name="Rectangle 137" width="103" height="41" rx="8.84" transform="translate(572.32 164.16) rotate(180)" fill="#6c63ff"/>
    <rect id="Rectangle_138" data-name="Rectangle 138" width="103" height="41" rx="8.84" transform="translate(469.32 164.16) rotate(180)" fill="#6c63ff"/>
    <rect id="Rectangle_139" data-name="Rectangle 139" width="103" height="41" rx="8.84" transform="translate(469.32 164.16) rotate(180)" opacity="0.1"/>
    <rect id="Rectangle_140" data-name="Rectangle 140" width="103" height="41" rx="8.84" transform="translate(366.32 164.16) rotate(180)" fill="#6c63ff"/>
    <rect id="Rectangle_141" data-name="Rectangle 141" width="103" height="41" rx="8.84" transform="translate(263.32 164.16) rotate(180)" fill="#6c63ff"/>
    <rect id="Rectangle_142" data-name="Rectangle 142" width="103" height="41" rx="8.84" transform="translate(263.32 164.16) rotate(180)" opacity="0.1"/>
    <ellipse id="Ellipse_12" data-name="Ellipse 12" cx="499" cy="113.5" rx="499" ry="113.5" transform="translate(0 422.16)" fill="#f5f5f5"/>
    <path id="Path_87" data-name="Path 87" d="M193.79,610.14s9-30.41-1.68-52.8a48,48,0,0,1-3.89-30.14,80.79,80.79,0,0,1,4.27-14.15" transform="translate(-79.84 -125.42)" fill="none" stroke="#535461" stroke-miterlimit="10" stroke-width="2"/>
    <path id="Path_88" data-name="Path 88" d="M185.87,498.91c0,3.73,6.75,14.54,6.75,14.54s6.75-10.81,6.75-14.54a6.75,6.75,0,1,0-13.5,0Z" transform="translate(-79.84 -125.42)" fill="#6c63ff"/>
    <path id="Path_89" data-name="Path 89" d="M174.71,519.56c2,3.13,13.57,8.53,13.57,8.53s-.21-12.74-2.24-15.87a6.75,6.75,0,0,0-11.33,7.34Z" transform="translate(-79.84 -125.42)" fill="#6c63ff"/>
    <path id="Path_90" data-name="Path 90" d="M175.2,554.84c3.33,1.68,16,.52,16,.52s-6.61-10.89-9.94-12.57a6.749,6.749,0,1,0-6.081,12.051Z" transform="translate(-79.84 -125.42)" fill="#6c63ff"/>
    <path id="Path_91" data-name="Path 91" d="M181.58,581.45c3,2.22,15.7,3.22,15.7,3.22s-4.68-11.85-7.67-14.07a6.75,6.75,0,0,0-8,10.85Z" transform="translate(-79.84 -125.42)" fill="#6c63ff"/>
    <path id="Path_92" data-name="Path 92" d="M202.45,528.81c-2.67,2.6-15.13,5.29-15.13,5.29s3.05-12.37,5.72-15a6.75,6.75,0,0,1,9.41,9.68Z" transform="translate(-79.84 -125.42)" fill="#6c63ff"/>
    <path id="Path_93" data-name="Path 93" d="M209.52,560c-3.33,1.68-16,.52-16,.52s6.61-10.89,9.94-12.57A6.75,6.75,0,0,1,209.52,560Z" transform="translate(-79.84 -125.42)" fill="#6c63ff"/>
    <path id="Path_94" data-name="Path 94" d="M212.22,591.32c-3,2.22-15.7,3.22-15.7,3.22s4.68-11.85,7.67-14.07a6.75,6.75,0,0,1,8,10.85Z" transform="translate(-79.84 -125.42)" fill="#6c63ff"/>
    <path id="Path_95" data-name="Path 95" d="M676.82,437.8s32.89,32.89,14.32,81.69,31.83,130,31.83,130-.54-.08-1.54-.26C653.88,637.26,620.32,560,657.88,502.62,671.84,481.28,683.31,456.26,676.82,437.8Z" transform="translate(-79.84 -125.42)" fill="#6c63ff"/>
    <path id="Path_96" data-name="Path 96" d="M676.82,437.8s32.89,32.89,14.32,81.69,31.83,130,31.83,130-.54-.08-1.54-.26C653.88,637.26,620.32,560,657.88,502.62,671.84,481.28,683.31,456.26,676.82,437.8Z" transform="translate(-79.84 -125.42)" opacity="0.2"/>
    <path id="Path_97" data-name="Path 97" d="M676.82,437.8s18.57,40.31,0,73.2S673.64,636.18,723,649.44" transform="translate(-79.84 -125.42)" fill="none" stroke="#535461" stroke-miterlimit="10" stroke-width="1"/>
    <path id="Path_98" data-name="Path 98" d="M618.25,570.81s37.53-6,40.95,27.66,72.16,38.29,72.16,38.29l-1.29.86c-56.76,37.26-111,23.73-102.84-25.74C630.27,593.49,630,575,618.25,570.81Z" transform="translate(-79.84 -125.42)" fill="#6c63ff"/>
    <path id="Path_99" data-name="Path 99" d="M618.25,570.81s37.53-6,40.95,27.66,72.16,38.29,72.16,38.29l-1.29.86c-56.76,37.26-111,23.73-102.84-25.74C630.27,593.49,630,575,618.25,570.81Z" transform="translate(-79.84 -125.42)" fill="#f5f5f5" opacity="0.2"/>
    <path id="Path_100" data-name="Path 100" d="M618.25,570.81s29.13,6.39,26.74,32.88,43.26,58.24,86.37,33.07" transform="translate(-79.84 -125.42)" fill="none" stroke="#535461" stroke-miterlimit="10" stroke-width="1"/>
    <path id="Path_101" data-name="Path 101" d="M903.77,648.23s-55.7-11.14-70.56-26-81.7-40.85-89.13-22.28S643.82,681.66,707,692.8s148.54,14.85,167.11,7.43S903.77,648.23,903.77,648.23Z" transform="translate(-79.84 -125.42)" fill="#a8a8a8"/>
    <path id="Path_102" data-name="Path 102" d="M707,685.9c63.13,11.14,148.54,14.85,167.11,7.43,14.14-5.66,24-32.83,27.85-45.48l1.86.39s-11.14,44.56-29.71,52-104,3.71-167.11-7.43c-18.22-3.22-23.43-10.77-21.47-20.33C687,678.71,693.39,683.5,707,685.9Z" transform="translate(-79.84 -125.42)" opacity="0.2"/>
    <path id="Path_103" data-name="Path 103" d="M1016.47,153.59a16.36,16.36,0,0,0-4.61-6.39c-14.95-13.62-39.12-9.49-57.68-17.82-4.28-1.92-8.66-4.58-13.3-3.85-6.48,1-12.51,8.4-18.16,5.12l.4,1.23-.4-.21,4.16,12.66c1.6,4.86,3.28,9.86,6.38,13.91a36.42,36.42,0,0,0,8.81,60.58c.2.42.39.85.58,1.28l.53.22a42.52,42.52,0,0,1,2.74,8.82c-4.81.67-13.2,6-21.44,13.84L908,242.43a53.94,53.94,0,0,1-29.64-10.08L829,196.9a16.51,16.51,0,0,0-9.45,4.18c-6.12-6.38-11.32-13-10.88-17,0,0-22.94-42.93-31.28-21.47s15.64,44,15.64,44l15.21,19.71a82.923,82.923,0,0,0-1.14,10.45c18.77,21.47,84.45,40.89,84.45,40.89l10.24.5.06.5a34.872,34.872,0,0,0-.92,8.2q0,.6,0,1.23v.82c.52,34.24,5.21,139,5.21,139,.91-.41,1.86-.78,2.82-1.13l-.73,9.31s-43.79,6.13-76.11,18.4-33.36,26.58-33.36,26.58V607.33c-9.23,4.74-23.8,11-31.28,7.63-8.12-3.62-12.57-.58-13.38,2.59h0a4,4,0,0,0,0,1.91h0a3.419,3.419,0,0,0,.31.81v.06a3.249,3.249,0,0,0,.55.72c3.13,3.07,70.9,29.64,86.54,25.55a10.815,10.815,0,0,0,1.42-.48c.15-.06.28-.14.43-.21s.58-.27.85-.43.31-.21.46-.31.47-.31.69-.48a4.6,4.6,0,0,0,.43-.39c.14-.13.41-.35.59-.55s.26-.3.39-.45.36-.4.52-.62.22-.33.34-.49.32-.46.46-.7.19-.34.28-.52.28-.51.41-.78a5.7,5.7,0,0,0,.23-.53c.07-.18.25-.57.36-.86s.12-.35.19-.53a9.673,9.673,0,0,0,.31-1,1.943,1.943,0,0,1,.14-.51c.09-.35.19-.69.27-1a2.736,2.736,0,0,1,.1-.48c.08-.38.16-.76.22-1.14a.928.928,0,0,1,.07-.43c.07-.41.13-.83.18-1.24v-.36c.05-.45.1-.9.14-1.35v-.28q.06-.73.09-1.46v-1.86a85.59,85.59,0,0,0-2-18.13h0L853,501.5a586.558,586.558,0,0,0,61.36-2.26l2.24,51.32s0,33.73,11.47,49.06c9.82,13.12,21.16,71.15,24.22,87.62-4.21,8-12.27,18-26.31,17.66,0,0-26.41-2.28-24.92,5h0a3.742,3.742,0,0,0,.17.56h0a5.158,5.158,0,0,0,.29.61h0c.11.19.23.38.37.58l.08.12q.225.315.51.66v.05c.18.21.37.42.58.63l.18.18c.24.24.48.48.76.73,13.55,12.27,92.79,14.31,92.79,14.31v-.57h0c0-3.55-.52-22.17-5.26-36.19h1.1s-11.47-103.24-20.85-115.5c0,0-2.49-54.44,3.13-88.55l1-.38c26.28-9.82,28.15-34,25.44-51.76,5,1.6,7.92,2.69,7.92,2.69s-.09-.77-.26-2.14l.26.1s-.5-3.25-1.33-8.31c-1.88-13.93-5.52-38.27-9.4-49.76-.63-2.53-1.23-4.69-1.78-6.32a108.061,108.061,0,0,1-4.59-21.23,251.635,251.635,0,0,1-1.61-28.16,270.267,270.267,0,0,1,2.88-37.56c1.59-10.86,3-23.22,2.9-31.85a42.47,42.47,0,0,0-.63-9c-1.39-6.37-7.54-10.51-13.93-13.15-.41-.17-.83-.31-1.25-.47.16-2.41.36-5.15.62-8a6.87,6.87,0,0,0,5.31,1.08c2.75-.6,4.72-2.89,6.47-5,9.24-11.35,18.73-23.18,22.28-37.28a80.538,80.538,0,0,0,2-19.2v-1.06A20.879,20.879,0,0,0,1016.47,153.59Z" transform="translate(-79.84 -125.42)" fill="url(#linear-gradient-2)"/>
    <path id="Path_104" data-name="Path 104" d="M932.34,208.92s14,21,11,31,33,4,33,4,1-39,8-48S932.34,208.92,932.34,208.92Z" transform="translate(-79.84 -125.42)" fill="#f7c4a7"/>
    <path id="Path_105" data-name="Path 105" d="M839.84,222.42s-29-24-28-33c0,0-22-42-30-21s15,43,15,43l28,37Z" transform="translate(-79.84 -125.42)" fill="#f7c4a7"/>
    <path id="Path_106" data-name="Path 106" d="M810.34,598.92s-27,17-38,12-15,3-12,6,68,29,83,25,7.37-36.76,7.37-36.76Z" transform="translate(-79.84 -125.42)" fill="#535461"/>
    <path id="Path_107" data-name="Path 107" d="M953.34,671.92s-6.5,27.5-29,27c0,0-34-3-21,9s89,14,89,14,0-41-14-50S953.34,671.92,953.34,671.92Z" transform="translate(-79.84 -125.42)" fill="#535461"/>
    <path id="Path_108" data-name="Path 108" d="M912.34,477.92l3,70s0,33,11,48,24,90,24,90h38s-11-101-20-113c0,0-4-89,10-109Z" transform="translate(-79.84 -125.42)" fill="#575988"/>
    <path id="Path_109" data-name="Path 109" d="M912.34,477.92l3,70s0,33,11,48,24,90,24,90h38s-11-101-20-113c0,0-4-89,10-109Z" transform="translate(-79.84 -125.42)" opacity="0.1"/>
    <path id="Path_110" data-name="Path 110" d="M991.34,414.92s23,55-19,71-118,14-118,14l-4,116s-47,6-48-9v-127s1-14,32-26,73-18,73-18l2-26Z" transform="translate(-79.84 -125.42)" fill="#575988"/>
    <path id="Path_111" data-name="Path 111" d="M954.49,233.73a47.85,47.85,0,0,1,23.5,3.32c6.13,2.58,12,6.63,13.36,12.86,1.58,7.38-.17,23.93-2.18,37.94a261.281,261.281,0,0,0-1.22,66.29c1,9.19,2.45,17.2,4.4,20.77,6,11,12,63,12,63s-66-25-99-10c0,0-4.5-102.5-5-136-.39-25.94,32.5-55.5,43.5-56.5C950.29,234.83,948.08,234.4,954.49,233.73Z" transform="translate(-79.84 -125.42)" opacity="0.1"/>
    <path id="Path_112" data-name="Path 112" d="M954.49,231.73a47.85,47.85,0,0,1,23.5,3.32c6.13,2.58,12,6.63,13.36,12.86,1.58,7.38-.17,23.93-2.18,37.94a261.281,261.281,0,0,0-1.22,66.29,107.524,107.524,0,0,0,4.4,20.77c4.5,13.5,12,63,12,63s-66-25-99-10c0,0-4.5-102.5-5-136-.39-25.94,32.5-55.5,43.5-56.5C950.29,232.83,948.08,232.4,954.49,231.73Z" transform="translate(-79.84 -125.42)" fill="#e14b5a"/>
    <path id="Path_113" data-name="Path 113" d="M972.34,286.92l-71-4s-4.52-34.81,5.73-34.45l70.27,2.45S992.34,268.92,972.34,286.92Z" transform="translate(-79.84 -125.42)" opacity="0.1"/>
    <path id="Path_114" data-name="Path 114" d="M972.34,284.92l-81-4s-63-19-81-40c0,0,1-37,21-39l47.31,34.69a51.08,51.08,0,0,0,28.42,9.86l70.27,2.45S992.34,266.92,972.34,284.92Z" transform="translate(-79.84 -125.42)" fill="#e14b5a"/>
    <path id="Path_115" data-name="Path 115" d="M975.84,213.42c1.19-9.48,5.49-12.63,8.5-16.5,7-9-52,13-52,13a106.079,106.079,0,0,1,8,14.71,35.85,35.85,0,0,0,15,3.29C964,227.92,969.62,218.55,975.84,213.42Z" transform="translate(-79.84 -125.42)" opacity="0.1"/>
    <circle id="Ellipse_13" data-name="Ellipse 13" cx="36" cy="36" r="36" transform="translate(839.5 29.5)" fill="#f7c4a7"/>
    <path id="Path_116" data-name="Path 116" d="M932.61,165.69c-3.83-4.19-5.68-9.77-7.42-15.18l-4-12.39c5.42,3.2,11.2-4,17.42-5,4.45-.71,8.66,1.89,12.76,3.76,17.8,8.14,41,4.1,55.32,17.43a16,16,0,0,1,4.42,6.25,20.909,20.909,0,0,1,.8,7,80.321,80.321,0,0,1-1.87,18.78c-3.4,13.79-12.5,25.37-21.37,36.47-1.68,2.11-3.57,4.35-6.21,4.94-5.15,1.15-9.13-4.41-11.12-9.29a98.893,98.893,0,0,1-5.8-20.07c-.52-2.91-.93-5.91-2.38-8.48-3.1-5.49-10.74-10.69-15.38-14.95S936.87,170.34,932.61,165.69Z" transform="translate(-79.84 -125.42)" opacity="0.1"/>
    <path id="Path_117" data-name="Path 117" d="M932.61,164.69c-3.83-4.19-5.68-9.77-7.42-15.18l-4-12.39c5.42,3.2,11.2-4,17.42-5,4.45-.71,8.66,1.89,12.76,3.76,17.8,8.14,41,4.1,55.32,17.43a16,16,0,0,1,4.42,6.25,20.909,20.909,0,0,1,.8,7,80.321,80.321,0,0,1-1.87,18.78c-3.4,13.79-12.5,25.37-21.37,36.47-1.68,2.11-3.57,4.35-6.21,4.94-5.15,1.15-9.13-4.41-11.12-9.29a98.9,98.9,0,0,1-5.8-20.07c-.52-2.91-.93-5.91-2.38-8.48-3.1-5.49-10.74-10.69-15.38-14.95S936.87,169.34,932.61,164.69Z" transform="translate(-79.84 -125.42)" fill="#632652"/>
    <ellipse id="Ellipse_14" data-name="Ellipse 14" cx="3" cy="6.5" rx="3" ry="6.5" transform="translate(882 63)" fill="#f7c4a7"/>
    <path id="Path_118" data-name="Path 118" d="M982.84,368.42s-2,6-12,5-39-3-39,0" transform="translate(-79.84 -125.42)" opacity="0.1"/>
    <path id="Path_119" data-name="Path 119" d="M903.34,706.92c-1.8-1.66-2.7-3-2.91-4.17-.26,1.3.54,3,2.91,5.17,13,12,89,14,89,14v-1C991.85,720.91,916.3,718.88,903.34,706.92Z" transform="translate(-79.84 -125.42)" fill="#fff" opacity="0.5"/>
    <path id="Path_120" data-name="Path 120" d="M843.34,639.92c-15,4-80-22-83-25a3.25,3.25,0,0,1-.83-1.46,3.6,3.6,0,0,0,.83,3.46c3,3,68,29,83,25,7.72-2.06,9.44-11.73,9.3-20.64C852.49,629.58,850.48,638,843.34,639.92Z" transform="translate(-79.84 -125.42)" fill="#fff" opacity="0.5"/>
    <path id="Path_121" data-name="Path 121" d="M581.93,629.16a1.5,1.5,0,1,0-1.5-1.5,1.5,1.5,0,0,0,1.5,1.5Z" transform="translate(-79.84 -125.42)" fill="#67647e"/>
    <path id="Path_122" data-name="Path 122" d="M171.33,602.63s37.32-1.15,48.56-9.16,57.4-17.57,60.19-4.73S336.17,652.62,294,653s-97.89-6.56-109.12-13.4S171.33,602.63,171.33,602.63Z" transform="translate(-79.84 -125.42)" fill="#a8a8a8"/>
    <path id="Path_123" data-name="Path 123" d="M294.79,648.49c-42.13.34-97.89-6.56-109.12-13.4-8.55-5.21-12-23.89-13.09-32.51h-1.25s2.36,30.1,13.59,36.93S251.91,653.3,294,653c12.16-.1,16.36-4.42,16.13-10.83C308.48,646,303.84,648.42,294.79,648.49Z" transform="translate(-79.84 -125.42)" opacity="0.2"/>
    <rect id="Rectangle_143" data-name="Rectangle 143" width="103" height="41" rx="8.84" transform="translate(1040.32 573.16) rotate(180)" fill="#6c63ff"/>
    <rect id="Rectangle_144" data-name="Rectangle 144" width="103" height="41" rx="8.84" transform="translate(1040.32 573.16) rotate(180)" opacity="0.1"/>
    <rect id="Rectangle_145" data-name="Rectangle 145" width="103" height="41" rx="8.84" transform="translate(937.32 493.16)" fill="#6c63ff"/>
    <rect id="Rectangle_146" data-name="Rectangle 146" width="103" height="41" rx="8.84" transform="translate(1040.32 493.16) rotate(180)" fill="#6c63ff"/>
    <rect id="Rectangle_147" data-name="Rectangle 147" width="103" height="41" rx="8.84" transform="translate(1040.32 493.16) rotate(180)" opacity="0.1"/>
    <rect id="Rectangle_148" data-name="Rectangle 148" width="103" height="41" rx="8.84" transform="translate(937.32 411.16)" fill="#6c63ff"/>
  </g>
</svg>
